<svg width="355" height="376" viewBox="0 0 355 376" fill="none" xmlns="http://www.w3.org/2000/svg">
<path d="M185.5 352.567V360.167V352.567ZM185.5 352.433C185.5 348.261 188.89 344.875 193.089 344.833C193.14 345.189 193.166 345.55 193.166 345.918C193.166 350.09 189.776 353.476 185.577 353.518C185.526 353.158 185.5 352.795 185.5 352.431M185.5 352.431C185.5 348.26 182.109 344.874 177.911 344.833C177.86 345.189 177.834 345.55 177.833 345.918C177.833 350.09 181.224 353.476 185.422 353.518C185.474 353.158 185.5 352.795 185.5 352.431Z" fill="#391412"/>
<path d="M185.5 352.567V360.167M185.5 352.433C185.5 348.261 188.89 344.875 193.089 344.833C193.14 345.189 193.166 345.55 193.166 345.918C193.166 350.09 189.776 353.476 185.577 353.518C185.526 353.158 185.5 352.795 185.5 352.431M185.5 352.431C185.5 348.26 182.109 344.874 177.911 344.833C177.86 345.189 177.834 345.55 177.833 345.918C177.833 350.09 181.224 353.476 185.422 353.518C185.474 353.158 185.5 352.795 185.5 352.431Z" stroke="#391412" stroke-linecap="round" stroke-linejoin="round"/>
<path d="M30.0003 360.029V363.333V360.029ZM30.0003 359.971C30.0003 358.157 31.4745 356.685 33.2999 356.667C33.3221 356.821 33.3334 356.978 33.3337 357.138C33.3337 358.952 31.8595 360.424 30.0341 360.442C30.0116 360.286 30.0004 360.128 30.0003 359.97M30.0003 359.97C30.0003 358.157 28.5262 356.684 26.7007 356.667C26.6785 356.821 26.6673 356.978 26.667 357.138C26.667 358.952 28.1412 360.424 29.9666 360.442C29.989 360.286 30.0003 360.128 30.0003 359.97Z" fill="#391412"/>
<path d="M30.0003 360.029V363.333M30.0003 359.971C30.0003 358.157 31.4745 356.685 33.2999 356.667C33.3221 356.821 33.3334 356.978 33.3337 357.138C33.3337 358.952 31.8595 360.424 30.0341 360.442C30.0116 360.286 30.0004 360.128 30.0003 359.97M30.0003 359.97C30.0003 358.157 28.5262 356.684 26.7007 356.667C26.6785 356.821 26.6673 356.978 26.667 357.138C26.667 358.952 28.1412 360.424 29.9666 360.442C29.989 360.286 30.0003 360.128 30.0003 359.97Z" stroke="#391412" stroke-linecap="round" stroke-linejoin="round"/>
<path d="M9.00033 52.0467V57.3333V52.0467ZM9.00033 51.9533C9.00033 49.0513 11.359 46.6953 14.2797 46.6667C14.3152 46.9138 14.3332 47.1653 14.3337 47.4213C14.3337 50.3233 11.975 52.6787 9.05433 52.708C9.01842 52.4576 9.00037 52.205 9.00033 51.952M9.00033 51.952C9.00033 49.0507 6.64166 46.6947 3.72099 46.6667C3.68544 46.9138 3.66744 47.1653 3.66699 47.4213C3.66699 50.3233 6.02566 52.6787 8.94633 52.708C8.98223 52.4576 9.00028 52.205 9.00033 51.952Z" fill="#391412"/>
<path d="M9.00033 52.0467V57.3333M9.00033 51.9533C9.00033 49.0513 11.359 46.6953 14.2797 46.6667C14.3152 46.9138 14.3332 47.1653 14.3337 47.4213C14.3337 50.3233 11.975 52.6787 9.05433 52.708C9.01842 52.4576 9.00037 52.205 9.00033 51.952M9.00033 51.952C9.00033 49.0507 6.64166 46.6947 3.72099 46.6667C3.68544 46.9138 3.66744 47.1653 3.66699 47.4213C3.66699 50.3233 6.02566 52.6787 8.94633 52.708C8.98223 52.4576 9.00028 52.205 9.00033 51.952Z" stroke="#391412" stroke-linecap="round" stroke-linejoin="round"/>
<path d="M253.384 352.213C253.444 352.162 253.519 352.132 253.597 352.126C253.676 352.12 253.754 352.139 253.822 352.18C255.118 352.978 255.828 353.987 256.207 355.098C256.3 355.373 256.373 355.653 256.43 355.936C256.816 355.288 257.432 354.773 258.361 354.402C258.426 354.376 258.498 354.369 258.567 354.381C258.637 354.394 258.701 354.426 258.753 354.473C258.805 354.521 258.843 354.582 258.861 354.65C258.88 354.718 258.879 354.79 258.859 354.858L258.791 355.084C258.281 356.782 258.125 357.302 258.125 358.5C258.125 358.599 258.086 358.695 258.015 358.765C257.945 358.835 257.849 358.875 257.75 358.875C257.651 358.875 257.555 358.835 257.485 358.765C257.415 358.695 257.375 358.599 257.375 358.5C257.375 357.354 257.518 356.737 257.889 355.484C257.468 355.763 257.191 356.087 257.005 356.446C256.718 356.999 256.625 357.677 256.625 358.5C256.625 358.599 256.586 358.695 256.515 358.765C256.445 358.835 256.349 358.875 256.25 358.875C256.151 358.875 256.055 358.835 255.985 358.765C255.915 358.695 255.875 358.599 255.875 358.5C255.875 357.378 255.826 356.307 255.497 355.34C255.275 354.691 254.926 354.083 254.365 353.539C254.746 354.987 254.75 356.383 254.75 358.404V358.5C254.75 358.599 254.711 358.695 254.64 358.765C254.57 358.835 254.474 358.875 254.375 358.875C254.276 358.875 254.18 358.835 254.11 358.765C254.04 358.695 254 358.599 254 358.5C254 357.641 253.996 356.861 253.784 356.201C253.661 355.821 253.469 355.481 253.153 355.198C253.498 356.381 253.625 357.256 253.625 358.5C253.625 358.599 253.586 358.695 253.515 358.765C253.445 358.835 253.349 358.875 253.25 358.875C253.151 358.875 253.055 358.835 252.985 358.765C252.915 358.695 252.875 358.599 252.875 358.5C252.875 357.051 252.698 356.154 252.144 354.493C252.122 354.426 252.119 354.353 252.136 354.284C252.154 354.214 252.191 354.151 252.243 354.102C252.295 354.053 252.36 354.02 252.43 354.007C252.5 353.993 252.573 354 252.639 354.027C253.162 354.236 253.56 354.515 253.86 354.844C253.76 354.088 253.564 353.347 253.277 352.639C253.248 352.566 253.242 352.486 253.261 352.409C253.28 352.333 253.323 352.264 253.384 352.213Z" fill="#391412"/>
<path d="M17.4429 278.752C17.53 278.679 17.638 278.635 17.7516 278.626C17.8651 278.618 17.9785 278.646 18.0755 278.705C19.9475 279.857 20.9734 281.315 21.5205 282.919C21.6559 283.316 21.7616 283.721 21.8434 284.131C22.4007 283.193 23.2912 282.45 24.6324 281.914C24.727 281.876 24.8303 281.866 24.9304 281.884C25.0306 281.902 25.1236 281.949 25.1988 282.017C25.2739 282.086 25.3282 282.174 25.3553 282.273C25.3825 282.371 25.3814 282.475 25.3523 282.572L25.2542 282.899C24.5176 285.352 24.2917 286.103 24.2917 287.833C24.2917 287.977 24.2346 288.115 24.133 288.216C24.0315 288.318 23.8937 288.375 23.75 288.375C23.6064 288.375 23.4686 288.318 23.367 288.216C23.2654 288.115 23.2084 287.977 23.2084 287.833C23.2084 286.179 23.4142 285.288 23.9504 283.477C23.3427 283.88 22.9424 284.348 22.6737 284.867C22.2594 285.665 22.125 286.644 22.125 287.833C22.125 287.977 22.068 288.115 21.9664 288.216C21.8648 288.318 21.727 288.375 21.5834 288.375C21.4397 288.375 21.3019 288.318 21.2003 288.216C21.0988 288.115 21.0417 287.977 21.0417 287.833C21.0417 286.213 20.9713 284.666 20.4951 283.269C20.1756 282.332 19.6707 281.454 18.8604 280.668C19.4113 282.758 19.4167 284.776 19.4167 287.695V287.833C19.4167 287.977 19.3596 288.115 19.258 288.216C19.1565 288.318 19.0187 288.375 18.875 288.375C18.7314 288.375 18.5936 288.318 18.492 288.216C18.3904 288.115 18.3334 287.977 18.3334 287.833C18.3334 286.593 18.3279 285.466 18.0208 284.513C17.8442 283.964 17.5658 283.473 17.1092 283.065C17.6075 284.772 17.7917 286.037 17.7917 287.833C17.7917 287.977 17.7346 288.115 17.633 288.216C17.5315 288.318 17.3937 288.375 17.25 288.375C17.1064 288.375 16.9686 288.318 16.867 288.216C16.7654 288.115 16.7084 287.977 16.7084 287.833C16.7084 285.74 16.4527 284.445 15.6526 282.046C15.6201 281.948 15.6162 281.843 15.6415 281.743C15.6667 281.643 15.72 281.552 15.7952 281.481C15.8703 281.41 15.9641 281.362 16.0655 281.343C16.167 281.324 16.2718 281.334 16.3676 281.372C17.1233 281.674 17.6974 282.077 18.1308 282.553C17.9864 281.46 17.7035 280.39 17.289 279.368C17.2466 279.262 17.2386 279.146 17.2663 279.035C17.2939 278.925 17.3557 278.826 17.4429 278.752Z" fill="#391412"/>
<path d="M66.4429 25.7523C66.53 25.6789 66.638 25.6349 66.7516 25.6264C66.8651 25.6179 66.9785 25.6455 67.0755 25.7052C68.9475 26.8573 69.9734 28.3149 70.5205 29.9193C70.6559 30.3164 70.7616 30.721 70.8434 31.1305C71.4007 30.1934 72.2912 29.4502 73.6324 28.914C73.727 28.8762 73.8303 28.8659 73.9304 28.8841C74.0306 28.9024 74.1236 28.9485 74.1988 29.0173C74.2739 29.086 74.3282 29.1745 74.3553 29.2726C74.3825 29.3707 74.3814 29.4746 74.3523 29.5721L74.2542 29.8993C73.5176 32.3519 73.2917 33.1032 73.2917 34.8333C73.2917 34.977 73.2346 35.1148 73.133 35.2163C73.0315 35.3179 72.8937 35.375 72.75 35.375C72.6064 35.375 72.4686 35.3179 72.367 35.2163C72.2654 35.1148 72.2084 34.977 72.2084 34.8333C72.2084 33.1785 72.4142 32.2875 72.9504 30.4772C72.3427 30.8802 71.9424 31.3482 71.6737 31.8666C71.2594 32.665 71.125 33.6444 71.125 34.8333C71.125 34.977 71.068 35.1148 70.9664 35.2163C70.8648 35.3179 70.727 35.375 70.5834 35.375C70.4397 35.375 70.3019 35.3179 70.2003 35.2163C70.0988 35.1148 70.0417 34.977 70.0417 34.8333C70.0417 33.2127 69.9713 31.6662 69.4951 30.2687C69.1756 29.3322 68.6707 28.4536 67.8604 27.6676C68.4113 29.7584 68.4167 31.7756 68.4167 34.6952V34.8333C68.4167 34.977 68.3596 35.1148 68.258 35.2163C68.1565 35.3179 68.0187 35.375 67.875 35.375C67.7314 35.375 67.5936 35.3179 67.492 35.2163C67.3904 35.1148 67.3334 34.977 67.3334 34.8333C67.3334 33.5929 67.3279 32.4657 67.0208 31.5129C66.8442 30.9642 66.5658 30.4729 66.1092 30.0645C66.6075 31.7724 66.7917 33.0366 66.7917 34.8333C66.7917 34.977 66.7346 35.1148 66.633 35.2163C66.5315 35.3179 66.3937 35.375 66.25 35.375C66.1064 35.375 65.9686 35.3179 65.867 35.2163C65.7654 35.1148 65.7084 34.977 65.7084 34.8333C65.7084 32.7403 65.4527 31.4452 64.6526 29.0462C64.6201 28.9482 64.6162 28.843 64.6415 28.7428C64.6667 28.6427 64.72 28.5519 64.7952 28.4811C64.8703 28.4103 64.9641 28.3625 65.0655 28.3432C65.167 28.3239 65.2718 28.334 65.3676 28.3723C66.1233 28.674 66.6974 29.077 67.1308 29.5532C66.9864 28.4601 66.7035 27.3898 66.289 26.3682C66.2466 26.2624 66.2386 26.1459 66.2663 26.0353C66.2939 25.9247 66.3557 25.8257 66.4429 25.7523Z" fill="#391412"/>
<path d="M312.443 26.7523C312.53 26.6789 312.638 26.6349 312.752 26.6264C312.865 26.6179 312.978 26.6455 313.076 26.7052C314.948 27.8573 315.973 29.3149 316.521 30.9193C316.656 31.3164 316.762 31.721 316.843 32.1305C317.401 31.1934 318.291 30.4502 319.632 29.914C319.727 29.8762 319.83 29.8659 319.93 29.8841C320.031 29.9024 320.124 29.9485 320.199 30.0173C320.274 30.086 320.328 30.1745 320.355 30.2726C320.382 30.3707 320.381 30.4746 320.352 30.5721L320.254 30.8993C319.518 33.3519 319.292 34.1032 319.292 35.8333C319.292 35.977 319.235 36.1148 319.133 36.2163C319.031 36.3179 318.894 36.375 318.75 36.375C318.606 36.375 318.469 36.3179 318.367 36.2163C318.265 36.1148 318.208 35.977 318.208 35.8333C318.208 34.1785 318.414 33.2875 318.95 31.4772C318.343 31.8802 317.942 32.3482 317.674 32.8666C317.259 33.665 317.125 34.6444 317.125 35.8333C317.125 35.977 317.068 36.1148 316.966 36.2163C316.865 36.3179 316.727 36.375 316.583 36.375C316.44 36.375 316.302 36.3179 316.2 36.2163C316.099 36.1148 316.042 35.977 316.042 35.8333C316.042 34.2127 315.971 32.6662 315.495 31.2687C315.176 30.3322 314.671 29.4536 313.86 28.6676C314.411 30.7584 314.417 32.7756 314.417 35.6952V35.8333C314.417 35.977 314.36 36.1148 314.258 36.2163C314.156 36.3179 314.019 36.375 313.875 36.375C313.731 36.375 313.594 36.3179 313.492 36.2163C313.39 36.1148 313.333 35.977 313.333 35.8333C313.333 34.5929 313.328 33.4657 313.021 32.5129C312.844 31.9642 312.566 31.4729 312.109 31.0645C312.608 32.7724 312.792 34.0366 312.792 35.8333C312.792 35.977 312.735 36.1148 312.633 36.2163C312.531 36.3179 312.394 36.375 312.25 36.375C312.106 36.375 311.969 36.3179 311.867 36.2163C311.765 36.1148 311.708 35.977 311.708 35.8333C311.708 33.7403 311.453 32.4452 310.653 30.0462C310.62 29.9482 310.616 29.843 310.641 29.7428C310.667 29.6427 310.72 29.5519 310.795 29.4811C310.87 29.4103 310.964 29.3625 311.066 29.3432C311.167 29.3239 311.272 29.334 311.368 29.3723C312.123 29.674 312.697 30.077 313.131 30.5532C312.986 29.4601 312.704 28.3898 312.289 27.3682C312.247 27.2624 312.239 27.1459 312.266 27.0353C312.294 26.9247 312.356 26.8257 312.443 26.7523Z" fill="#391412"/>
<path d="M157.973 363.022C158.073 362.937 158.198 362.886 158.329 362.877C158.46 362.867 158.591 362.899 158.703 362.967C160.863 364.297 162.046 365.979 162.678 367.83C162.834 368.288 162.956 368.755 163.05 369.227C163.693 368.146 164.721 367.289 166.268 366.67C166.377 366.626 166.496 366.614 166.612 366.636C166.728 366.657 166.835 366.71 166.922 366.789C167.008 366.868 167.071 366.971 167.102 367.084C167.134 367.197 167.132 367.317 167.099 367.429L166.986 367.807C166.136 370.637 165.875 371.504 165.875 373.5C165.875 373.666 165.809 373.825 165.692 373.942C165.575 374.059 165.416 374.125 165.25 374.125C165.084 374.125 164.925 374.059 164.808 373.942C164.691 373.825 164.625 373.666 164.625 373.5C164.625 371.591 164.863 370.562 165.481 368.474C164.78 368.939 164.318 369.479 164.008 370.077C163.53 370.998 163.375 372.128 163.375 373.5C163.375 373.666 163.309 373.825 163.192 373.942C163.075 374.059 162.916 374.125 162.75 374.125C162.584 374.125 162.425 374.059 162.308 373.942C162.191 373.825 162.125 373.666 162.125 373.5C162.125 371.63 162.044 369.846 161.494 368.233C161.126 367.152 160.543 366.139 159.608 365.232C160.244 367.644 160.25 369.972 160.25 373.341V373.5C160.25 373.666 160.184 373.825 160.067 373.942C159.95 374.059 159.791 374.125 159.625 374.125C159.459 374.125 159.3 374.059 159.183 373.942C159.066 373.825 159 373.666 159 373.5C159 372.069 158.994 370.768 158.639 369.669C158.436 369.036 158.114 368.469 157.588 367.997C158.163 369.968 158.375 371.427 158.375 373.5C158.375 373.666 158.309 373.825 158.192 373.942C158.075 374.059 157.916 374.125 157.75 374.125C157.584 374.125 157.425 374.059 157.308 373.942C157.191 373.825 157.125 373.666 157.125 373.5C157.125 371.085 156.83 369.591 155.907 366.822C155.869 366.709 155.865 366.588 155.894 366.473C155.923 366.357 155.985 366.252 156.071 366.171C156.158 366.089 156.266 366.034 156.383 366.011C156.5 365.989 156.621 366.001 156.732 366.045C157.604 366.393 158.266 366.858 158.766 367.407C158.6 366.146 158.273 364.911 157.795 363.732C157.746 363.61 157.737 363.476 157.769 363.348C157.801 363.221 157.872 363.107 157.973 363.022Z" fill="#391412"/>
<path fill-rule="evenodd" clip-rule="evenodd" d="M282.085 319.019C283.314 319.099 284.513 319.429 285.608 319.991C286.703 320.552 287.672 321.331 288.454 322.282C289.236 323.232 289.814 324.333 290.154 325.516C290.493 326.699 290.587 327.939 290.428 329.16C292.16 330.137 293.519 331.661 294.293 333.493C295.068 335.324 295.214 337.361 294.709 339.285C294.203 341.208 293.074 342.909 291.5 344.123C289.925 345.338 287.992 345.997 286.003 345.996H283.003V353.496H280.003V345.996H276.253C274.373 345.997 272.549 345.356 271.083 344.178C269.617 343 268.597 341.357 268.193 339.52C267.789 337.683 268.024 335.763 268.86 334.079C269.696 332.394 271.082 331.046 272.79 330.257C272.599 329.519 272.503 328.759 272.503 327.996C272.504 326.766 272.757 325.548 273.247 324.419C273.736 323.29 274.452 322.273 275.35 321.432C276.248 320.591 277.309 319.942 278.467 319.527C279.626 319.112 280.857 318.939 282.085 319.019Z" fill="#391412"/>
<path fill-rule="evenodd" clip-rule="evenodd" d="M310.324 356.427C311.006 356.472 311.672 356.655 312.281 356.967C312.889 357.278 313.428 357.712 313.862 358.24C314.296 358.768 314.618 359.38 314.806 360.037C314.995 360.694 315.047 361.383 314.959 362.061C315.921 362.604 316.676 363.451 317.106 364.468C317.536 365.486 317.617 366.618 317.337 367.686C317.056 368.755 316.429 369.7 315.554 370.375C314.679 371.049 313.605 371.415 312.501 371.415H310.834V375.582H309.167V371.415H307.084C306.039 371.415 305.025 371.059 304.211 370.405C303.396 369.751 302.83 368.837 302.605 367.817C302.381 366.797 302.512 365.73 302.976 364.794C303.441 363.858 304.211 363.109 305.16 362.671C305.054 362.26 305 361.838 305.001 361.415C305.001 360.731 305.141 360.055 305.413 359.427C305.685 358.8 306.083 358.236 306.582 357.768C307.081 357.301 307.67 356.94 308.314 356.71C308.958 356.479 309.642 356.383 310.324 356.427Z" fill="#391412"/>
<path fill-rule="evenodd" clip-rule="evenodd" d="M295.356 6.4701C296.107 6.5188 296.839 6.72089 297.509 7.06385C298.178 7.40684 298.77 7.88352 299.248 8.46424C299.725 9.04481 300.078 9.7173 300.286 10.4398C300.493 11.1626 300.551 11.9207 300.454 12.6664C301.512 13.2638 302.343 14.1954 302.816 15.3148C303.289 16.4341 303.379 17.6786 303.07 18.8539C302.761 20.0293 302.072 21.0698 301.109 21.8119C300.147 22.554 298.965 22.9565 297.75 22.9564H295.917V27.5394H294.083L294.084 22.9564H291.792C290.643 22.9569 289.528 22.5649 288.632 21.8451C287.736 21.1253 287.113 20.1207 286.866 18.9984C286.619 17.876 286.762 16.7026 287.273 15.6732C287.784 14.6438 288.632 13.8193 289.676 13.3373C289.559 12.8862 289.499 12.4223 289.5 11.9564C289.5 11.2043 289.655 10.4599 289.954 9.7699C290.253 9.07995 290.691 8.45888 291.24 7.94471C291.789 7.43057 292.437 7.03429 293.145 6.78064C293.853 6.52704 294.606 6.42143 295.356 6.4701Z" fill="#391412"/>
<path d="M348.5 57.5379V61.8333V57.5379ZM348.5 57.4621C348.5 55.1042 350.417 53.1899 352.79 53.1667C352.819 53.3674 352.833 53.5718 352.834 53.7798C352.834 56.1377 350.917 58.0514 348.544 58.0752C348.515 57.8718 348.5 57.6665 348.5 57.461M348.5 57.461C348.5 55.1037 346.584 53.1894 344.211 53.1667C344.182 53.3674 344.167 53.5718 344.167 53.7798C344.167 56.1377 346.083 58.0514 348.456 58.0752C348.486 57.8718 348.5 57.6665 348.5 57.461Z" fill="#391412"/>
<path d="M348.5 57.5379V61.8333M348.5 57.4621C348.5 55.1042 350.417 53.1899 352.79 53.1667C352.819 53.3674 352.833 53.5718 352.834 53.7798C352.834 56.1377 350.917 58.0514 348.544 58.0752C348.515 57.8718 348.5 57.6665 348.5 57.461M348.5 57.461C348.5 55.1037 346.584 53.1894 344.211 53.1667C344.182 53.3674 344.167 53.5718 344.167 53.7798C344.167 56.1377 346.083 58.0514 348.456 58.0752C348.486 57.8718 348.5 57.6665 348.5 57.461Z" stroke="#391412" stroke-linecap="round" stroke-linejoin="round"/>
<path d="M325 270.035V274V270.035ZM325 269.965C325 267.789 326.769 266.022 328.96 266C328.986 266.185 329 266.374 329 266.566C329 268.743 327.231 270.509 325.041 270.531C325.014 270.343 325 270.154 325 269.964M325 269.964C325 267.788 323.231 266.021 321.04 266C321.014 266.185 321 266.374 321 266.566C321 268.743 322.769 270.509 324.959 270.531C324.986 270.343 325 270.154 325 269.964Z" fill="#391412"/>
<path d="M325 270.035V274M325 269.965C325 267.789 326.769 266.022 328.96 266C328.986 266.185 329 266.374 329 266.566C329 268.743 327.231 270.509 325.041 270.531C325.014 270.343 325 270.154 325 269.964M325 269.964C325 267.788 323.231 266.021 321.04 266C321.014 266.185 321 266.374 321 266.566C321 268.743 322.769 270.509 324.959 270.531C324.986 270.343 325 270.154 325 269.964Z" stroke="#391412" stroke-linecap="round" stroke-linejoin="round"/>
<path d="M341.032 286.561C341.159 286.454 341.317 286.389 341.483 286.377C341.649 286.365 341.815 286.405 341.957 286.492C344.693 288.176 346.192 290.306 346.992 292.651C347.189 293.232 347.344 293.823 347.463 294.421C348.278 293.052 349.579 291.966 351.54 291.182C351.678 291.127 351.829 291.112 351.975 291.138C352.122 291.165 352.258 291.232 352.367 291.333C352.477 291.433 352.557 291.563 352.596 291.706C352.636 291.85 352.634 292.001 352.592 292.144L352.448 292.622C351.372 296.207 351.042 297.305 351.042 299.833C351.042 300.043 350.958 300.245 350.81 300.393C350.661 300.542 350.46 300.625 350.25 300.625C350.04 300.625 349.839 300.542 349.69 300.393C349.542 300.245 349.458 300.043 349.458 299.833C349.458 297.415 349.759 296.112 350.543 293.467C349.655 294.056 349.07 294.74 348.677 295.497C348.071 296.664 347.875 298.096 347.875 299.833C347.875 300.043 347.792 300.245 347.643 300.393C347.495 300.542 347.293 300.625 347.083 300.625C346.873 300.625 346.672 300.542 346.524 300.393C346.375 300.245 346.292 300.043 346.292 299.833C346.292 297.465 346.189 295.204 345.493 293.162C345.026 291.793 344.288 290.509 343.104 289.36C343.909 292.416 343.917 295.364 343.917 299.631V299.833C343.917 300.043 343.833 300.245 343.685 300.393C343.536 300.542 343.335 300.625 343.125 300.625C342.915 300.625 342.714 300.542 342.565 300.393C342.417 300.245 342.333 300.043 342.333 299.833C342.333 298.02 342.325 296.373 341.877 294.98C341.618 294.178 341.212 293.46 340.544 292.863C341.273 295.36 341.542 297.207 341.542 299.833C341.542 300.043 341.458 300.245 341.31 300.393C341.161 300.542 340.96 300.625 340.75 300.625C340.54 300.625 340.339 300.542 340.19 300.393C340.042 300.245 339.958 300.043 339.958 299.833C339.958 296.774 339.585 294.881 338.415 291.375C338.368 291.232 338.362 291.078 338.399 290.932C338.436 290.786 338.514 290.653 338.624 290.549C338.734 290.446 338.871 290.376 339.019 290.348C339.167 290.32 339.32 290.334 339.46 290.39C340.565 290.831 341.404 291.42 342.037 292.116C341.826 290.519 341.413 288.954 340.807 287.461C340.745 287.307 340.733 287.136 340.774 286.975C340.814 286.813 340.904 286.668 341.032 286.561Z" fill="#391412"/>
<path fill-rule="evenodd" clip-rule="evenodd" d="M43.0765 0.905332C44.1681 0.976124 45.2339 1.26977 46.2074 1.76861C47.1808 2.26746 48.0417 2.96106 48.7367 3.80572C49.4317 4.65053 49.9465 5.62925 50.2484 6.68072C50.5503 7.73209 50.6334 8.83427 50.4925 9.919C52.0318 10.7879 53.2397 12.1425 53.9281 13.7706C54.6164 15.3987 54.7464 17.2094 54.2972 18.919C53.8479 20.6286 52.8445 22.1413 51.4447 23.2208C50.0448 24.3002 48.3267 24.886 46.5589 24.8858H43.892V31.5528H41.2259V24.8858H37.892C36.2204 24.8865 34.5983 24.3166 33.2953 23.2696C31.9922 22.2226 31.0862 20.7614 30.7269 19.129C30.3677 17.4963 30.5774 15.7894 31.3207 14.2921C32.0639 12.7948 33.2963 11.5966 34.8138 10.8956C34.6442 10.2393 34.5584 9.56366 34.5589 8.8858C34.5593 7.79193 34.784 6.70971 35.2191 5.70611C35.6543 4.70248 36.2909 3.79879 37.0892 3.05084C37.8875 2.30288 38.8309 1.72647 39.8607 1.35748C40.8905 0.988533 41.9849 0.834564 43.0765 0.905332Z" fill="#391412"/>
<path fill-rule="evenodd" clip-rule="evenodd" d="M12.9042 327.534C13.7571 327.589 14.5899 327.819 15.3505 328.209C16.1108 328.599 16.7833 329.14 17.3261 329.8C17.8691 330.46 18.2709 331.224 18.5068 332.046C18.7426 332.867 18.8073 333.729 18.6972 334.576C19.8998 335.255 20.844 336.313 21.3818 337.585C21.9195 338.857 22.0209 340.272 21.6699 341.607C21.3188 342.943 20.535 344.125 19.4413 344.969C18.3478 345.812 17.0057 346.269 15.6249 346.268H13.5409V351.477H11.4579V346.268H8.85345C7.5476 346.269 6.28059 345.824 5.26263 345.006C4.24457 344.188 3.53646 343.046 3.25579 341.77C2.97524 340.495 3.13907 339.162 3.71966 337.992C4.30032 336.822 5.26362 335.886 6.44915 335.339C6.31659 334.826 6.24948 334.298 6.24993 333.768C6.25025 332.914 6.42559 332.068 6.76556 331.284C7.10556 330.5 7.60288 329.794 8.2265 329.21C8.85017 328.626 9.58697 328.175 10.3915 327.887C11.1961 327.598 12.0514 327.479 12.9042 327.534Z" fill="#391412"/>
</svg>
