<svg width="174" height="196" viewBox="0 0 174 196" fill="none" xmlns="http://www.w3.org/2000/svg">
<g filter="url(#filter0_n_3146_133202)">
<g clip-path="url(#clip0_3146_133202)">
<path d="M157.819 59.493L158.481 35.2357L155.793 36.3868L159.061 29.8392L174 0L163.109 5.09907L165.304 0.486182L149.219 8.51237C135.571 15.3223 123.465 21.6159 112.209 27.7542L111.655 28.0566L111.485 28.2571L110.599 27.7358L76.963 33.2342C74.3087 30.0314 70.4391 28.2754 65.2063 27.8878L65.1542 27.8845H65.1021C64.3473 27.8494 63.5892 27.8327 62.8496 27.8327C60.1651 27.8327 57.5495 28.0482 54.8549 28.491C51.0559 29.1141 47.2956 29.8777 43.0243 30.8901C32.8561 33.301 22.4123 36.0644 10.1614 39.5846L6.3053 40.6923L13.33 54.8684C11.9197 56.2267 9.28565 58.3686 7.93583 60.1563L12.3299 65.0415C13.2712 64.4902 15.406 63.2355 16.3776 62.7409L19.99 70.6485L17.4434 77.019L0 119.893L22.6796 110.637L28.1948 124.037C26.4769 126.899 23.4595 133.191 22.2324 136.246L28.7865 136.218C27.4216 138.283 26.1407 140.517 24.9287 142.953C22.3551 148.122 21.0053 153.704 21.1264 158.668C21.2037 161.854 21.8979 164.702 23.1923 167.135C23.8613 168.391 24.6715 169.507 25.6196 170.48C23.7588 171.962 22.1518 173.335 20.575 174.782L12.0441 182.609L23.4629 180.522C29.6489 179.391 35.6482 177.914 41.8039 176.003C50.3281 173.357 57.2066 170.191 62.9706 166.226L58.7312 176.521L64.4196 179.794C67.3798 176.551 71.7049 172.062 74.8029 169.709C75.3274 169.31 75.8552 168.916 76.383 168.527L65.2349 191.233L70.5988 195.069L73.2094 192.598L77.9093 195.998L94.6333 179.274L111.364 162.853L121.976 152.342L131.24 146.114L134.603 143.477L138.083 141.563L142.784 130.419L146.718 121.694L155.583 101.641L167.932 74.1269L157.286 76.9772L157.816 59.4914L157.819 59.493Z" fill="#D5272D"/>
<path d="M80.8022 180.357L69.4826 191.073L84.6129 158.932C80.4592 161.498 76.593 164.146 72.7638 167.055C69.3699 169.631 66.4148 172.401 63.4328 175.667L69.886 155.834L65.9861 159.633C58.7076 166.067 50.0674 169.937 40.8019 172.814C34.8883 174.65 28.978 176.118 22.856 177.236C25.6043 174.713 28.2972 172.581 31.2137 170.396C26.5944 168.217 24.6075 163.646 24.4865 158.587C24.3705 153.809 25.8094 148.717 27.9409 144.435C29.9917 140.313 32.4156 136.432 35.5103 132.908L30.9431 141.629C28.7393 145.838 27.1021 151.936 27.208 156.75C27.255 158.895 27.6299 160.858 28.5494 162.819C29.9866 165.892 32.9132 168.548 36.4684 168.68C38.3881 168.752 40.1716 167.472 41.8156 166.807C39.1311 166.258 36.8399 165.314 34.9555 163.494C30.4943 159.186 30.3413 153.004 32.0273 147.233C34.4092 139.085 39.8522 131.179 45.7255 125.042C53.0679 117.37 61.1668 111.84 70.6777 107.106C76.6199 104.148 82.621 101.587 88.8506 99.2848L101.52 94.6051L111.283 91.1651L114.509 90.1058C114.621 90.1543 114.901 90.2762 114.658 90.1727C108.474 93.0363 102.549 95.8966 97.4521 100.321C93.9355 103.373 91.2275 107.019 90.1282 111.586L85.1256 112.726C79.2086 114.497 73.6328 117.081 68.4941 120.498C63.5067 123.814 59.4152 128.023 56.1475 132.995C53.0326 137.735 47.1711 148.078 53.668 151.151C57.5326 152.979 62.6175 150.543 65.7407 147.768C68.953 144.914 71.9216 140.483 74.2901 136.542C68.6538 138.532 63.3369 140.859 57.7444 143.384C59.1043 140.468 60.6171 137.867 62.1922 135.197L65.6281 130.068L74.828 125.788C80.1382 123.317 85.524 121.313 91.135 119.395L84.3423 139.937L79.4809 155.816L93.211 149.053L91.3216 154.808L85.8198 169.148C85.7728 169.349 85.8198 169.377 85.9879 169.148L105.538 150.255L114.107 144.618L121.877 139.197L122.129 139.057C122.167 139.035 122.125 139.17 122.1 139.205L121.967 139.397C121.3 140.358 120.671 141.264 119.811 142.106L106.262 155.358L92.4428 168.928L80.7988 180.354L80.8022 180.357Z" fill="white"/>
<path d="M140.308 68.4164L141.382 45.631C137.615 47.1764 134.267 48.8404 130.664 50.6899C133.42 41.9904 138.035 34.564 143.03 27.1811L149.315 17.8902L136.919 23.9532L141.365 23.3869L138.942 26.8202C135.317 32.4522 131.905 38.1143 128.578 43.9435L125.238 55.6704L117.866 58.0395L122.656 44.1691C121.396 40.9496 120.012 37.8169 118.454 34.5674L125.544 32.1682L126.59 39.5278L131.661 26.3708L112.93 34.3569L94.9994 37.9038L74.0428 41.815C72.2274 37.6632 69.785 35.4796 65.2548 34.8681C59.9866 34.3836 54.7605 35.4278 49.6016 36.6408C45.0596 37.7084 40.674 38.7943 36.1909 40.151L18.6147 45.4672L20.6823 49.3249L16.0765 52.8385L11.0991 42.7924C22.0153 39.6564 32.8021 36.7477 43.809 34.138C47.7072 33.2141 51.4725 32.4305 55.4077 31.7856C58.62 31.2577 61.7146 31.0772 64.9589 31.2192C69.4084 31.55 73.1065 32.9251 75.4263 36.8713L109.94 31.2293L112.231 32.5792L113.828 30.6829C126.035 24.0267 138.291 17.7047 150.73 11.4979L158.093 7.82401L142.473 40.6254L148.787 37.6332L147.915 64.8627L147.641 72.9908L135.243 75.3148L129.103 76.486L125.596 85.7251C125.455 86.096 125.685 86.4719 125.964 86.5538C126.518 86.7159 126.551 86.4669 126.775 86.0292L130.525 78.683L144.98 76.3774L150.986 75.405L151.465 60.1028L151.987 41.6563L154.976 40.3748L154.457 59.4011L153.931 76.8051L137.338 79.9361L132.103 80.9368L129.081 87.6398C129.073 87.6648 129.207 87.7935 129.293 87.852L140.059 85.0502L161.984 79.1792L152.512 100.286L143.653 120.326L139.72 129.052L141.169 123.123L141.234 122.857C141.246 122.807 141.09 122.82 141.039 122.835L139.278 123.375L144.911 110.551L154.529 89.0048L157.113 83.0787L131.022 90.069L130.538 92.5551L125.097 86.7075L120.047 88.0441L125.845 71.7996L140.306 68.413L140.308 68.4164Z" fill="white"/>
<path d="M113.357 140.845C109.098 144.569 102.991 147.829 97.257 147.099C92.3066 146.467 90.081 141.595 89.8877 136.964C89.7835 134.486 89.9936 132.114 90.4273 129.639C91.6308 122.779 93.9926 116.245 97.4655 110.204C101.745 102.757 108.773 96.0127 117.328 94.1515C120.915 93.3713 125.311 93.4865 127.629 96.3802C128.629 97.6283 129.111 99.1253 129.258 100.738C129.834 107.131 127.156 117.161 124.85 123.388C122.423 129.937 118.641 136.229 113.357 140.848V140.845ZM108.56 131.247C112.873 126.629 115.959 117.759 117.323 111.535C117.721 109.718 118.091 106.719 116.921 105.895C115.751 105.071 113.727 106.202 112.478 107.427C111.056 108.821 109.945 110.376 108.96 112.149C106.24 117.039 104.334 122.285 103.241 127.773C102.905 129.461 102.668 132.206 103.72 133.004C104.968 133.952 107.208 132.695 108.562 131.247H108.56Z" fill="white"/>
<path d="M64.0093 74.5496L66.6618 66.3029L73.1957 46.7504L89.3549 42.6287L86.3728 49.2682L78.1277 51.7241L77.1595 54.8501L84.8078 52.6731L81.9771 58.0478L75.5054 60.2048L74.206 64.3849L85.3592 60.2315L93.0648 41.7933L102.53 39.4827L101.238 61.6499L95.5358 63.2472L95.7862 58.7228L91.0291 60.2783L89.0405 65.2136L82.7201 67.2101L84.0598 63.9355L85.9997 60.9014C84.3439 62.3266 82.9823 63.9539 81.725 65.7282L80.0524 68.0873L64.0093 74.5513V74.5496ZM96.0905 54.0297L96.4166 46.8406L92.9925 54.9871L96.0905 54.0297Z" fill="white"/>
<path d="M136.73 121.636L128.631 125.104L134.454 92.398L151.453 86.8612L145.503 100.82L136.73 121.636Z" fill="white"/>
<path d="M94.6181 83.859L93.7642 87.7785L106.882 82.7446L103.542 89.8318L85.1543 97.0761L90.6712 72.6751L96.9328 70.6385L106.439 67.4842L103.85 73.2966L96.3344 75.7743L95.7292 78.7599L106.025 75.5421L100.947 81.5985L94.6181 83.859Z" fill="white"/>
<path d="M33.9433 115.98L30.4923 120.794L24.5164 106.277L6.10986 113.788L20.5662 78.262L23.644 70.5617L19.3693 61.2022C21.2385 60.4521 23.0052 59.8489 24.9232 59.2291L27.7355 65.6664L22.3076 80.1249L10.9796 108.608L24.9552 102.581L28.3339 101.201L33.9433 115.98Z" fill="white"/>
<path d="M102.127 61.4912L105.986 41.82L104.835 39.0667L112.477 36.8696C115.529 35.9925 118.503 37.5563 119.543 40.5419C120.122 42.2026 120.165 43.8767 119.928 45.6827C119.185 50.7217 116.183 55.0555 111.754 57.6636C108.721 59.4496 105.464 60.5974 102.127 61.4912ZM114.388 43.9702C114.287 43.1566 113.8 42.348 112.915 42.2895C112.421 42.2578 111.806 42.4683 111.302 42.6587L108.321 54.5677C112.152 52.8986 114.884 48 114.388 43.9702Z" fill="white"/>
<path d="M108.84 89.087L110.037 84.7749L114.357 69.5462L107.033 71.4959L108.82 65.4395L132.343 59.9829L136.571 59.084L128.636 62.8833L127.608 66.0326L122.378 67.4694L115.969 86.4723L108.84 89.087Z" fill="white"/>
<path d="M92.2712 176.899L76.7559 192.039L80.4809 184.636L106.87 158.664L118.109 147.599L122.263 144.635C125.596 143.145 128.878 141.86 132.522 140.859L129.256 143.419L119.829 149.756L108.992 160.49L92.2712 176.9V176.899Z" fill="white"/>
<path d="M152.216 33.5282L148.133 35.3794L150.837 29.6939L160.024 10.2365L166.679 7.12064L156.05 28.3506L152.248 35.9708L152.216 33.5282Z" fill="white"/>
<path d="M133.327 137.608L123.65 140.463L126.745 129.963L137.874 125.903L133.327 137.608Z" fill="white"/>
<path d="M105.702 65.384L80.076 71.7295C75.4668 72.8706 71.1367 74.406 66.6434 75.9414C64.9205 75.4051 63.3706 74.7234 61.7703 73.8563C57.9882 71.8046 54.5388 69.3102 51.3853 66.3781C58.8202 61.9958 66.1391 57.9526 69.8642 49.9999C70.8459 47.9032 71.3333 45.7062 71.1904 43.4156C70.9501 39.5245 67.8605 37.5213 64.0632 37.2389C61.2879 37.0334 58.6236 37.2506 55.8701 37.7886C51.6408 38.6156 47.5292 39.5662 43.4058 40.8226C32.9804 44.002 23.641 49.5956 15.8296 57.1122C14.3923 58.4956 13.0408 59.7871 11.8003 61.4294C19.6201 56.8483 28.0687 54.3171 37.1341 53.2779C34.69 58.3853 32.3635 63.3507 30.2926 68.5467L18.5897 97.9148L16.6902 103.011L23.5822 99.3633C27.1156 97.4938 30.6506 95.8097 34.2966 94.1924L34.2126 92.221C34.379 90.1509 34.6749 88.1795 35.2565 86.1946C36.1003 83.3143 37.0753 80.5927 38.1998 77.8143L40.1313 73.046C43.3537 75.0442 46.3794 76.902 49.7111 78.5043C50.6743 78.9671 51.782 79.6838 52.8478 79.6938C54.4817 79.7089 56.0214 79.1375 57.6015 78.8284C59.3195 78.4909 60.9416 77.8577 62.6898 77.7207L68.0252 77.3013L72.9521 76.5395L65.4903 78.5962C59.5431 80.5058 52.7452 82.925 47.746 86.5756C46.45 87.5229 44.6665 89.1719 45.1136 90.3297C45.5288 91.4056 48.5277 91.8517 50.1112 91.8768L57.267 91.9904L68.0874 91.967C69.575 91.9637 72.5436 92.3429 72.3133 92.8608C72.2764 92.9461 72.1251 93.1599 72.0242 93.2167L68.7077 95.0545C64.8868 96.8606 61.1921 98.3926 57.2939 99.903L43.5974 105.211L53.0209 103.717C51.2122 104.538 49.6304 105.463 48.0469 106.715C44.2429 109.72 40.839 113.07 37.6401 116.744C33.1368 121.917 29.479 127.704 26.8869 134.16C30.6658 130.431 34.5185 127.124 38.726 124.027C45.9306 118.722 53.4311 113.965 61.1013 109.358L71.6679 103.012C74.1624 101.514 76.4351 99.908 78.7161 98.127C80.4627 96.7637 82.0159 95.2934 83.3858 93.5759C84.6701 91.967 86.0788 89.4392 85.0282 87.842C82.3537 83.7737 68.1193 85.1204 62.8714 85.7753C70.276 82.2868 77.9109 79.9879 85.7745 78.3907L87.0991 72.6667L93.159 70.306L105.731 65.521C105.983 65.4158 105.966 65.3523 105.699 65.3857L105.702 65.384ZM44.4631 62.5488L46.6164 58.2784L50.2439 51.5404C50.6373 50.6231 50.1868 50.4611 49.9868 50.4343C49.0303 50.3575 46.6316 50.8554 45.3944 51.1661C48.4134 49.0393 51.698 47.4621 55.2331 46.4847C57.0283 45.9885 59.6523 45.5458 60.5567 46.7303C61.7653 48.3142 59.7532 51.2179 58.2554 52.8819C56.4349 54.9069 54.3321 56.5008 52.1048 58.0863C49.6405 59.6952 47.2686 61.137 44.4648 62.5488H44.4631Z" fill="white"/>
</g>
</g>
<defs>
<filter id="filter0_n_3146_133202" x="0" y="0" width="174" height="196" filterUnits="userSpaceOnUse" color-interpolation-filters="sRGB">
<feFlood flood-opacity="0" result="BackgroundImageFix"/>
<feBlend mode="normal" in="SourceGraphic" in2="BackgroundImageFix" result="shape"/>
<feTurbulence type="fractalNoise" baseFrequency="2.9830508232116699 2.9830508232116699" stitchTiles="stitch" numOctaves="3" result="noise" seed="8968" />
<feColorMatrix in="noise" type="luminanceToAlpha" result="alphaNoise" />
<feComponentTransfer in="alphaNoise" result="coloredNoise1">
<feFuncA type="discrete" tableValues="1 1 1 1 1 1 1 1 1 1 1 1 1 1 1 1 1 1 1 1 1 1 1 1 1 1 1 1 1 1 1 1 1 1 1 1 1 1 1 1 1 1 1 1 1 1 1 1 1 1 1 0 0 0 0 0 0 0 0 0 0 0 0 0 0 0 0 0 0 0 0 0 0 0 0 0 0 0 0 0 0 0 0 0 0 0 0 0 0 0 0 0 0 0 0 0 0 0 0 0 "/>
</feComponentTransfer>
<feComposite operator="in" in2="shape" in="coloredNoise1" result="noise1Clipped" />
<feFlood flood-color="rgba(0, 0, 0, 0.05)" result="color1Flood" />
<feComposite operator="in" in2="noise1Clipped" in="color1Flood" result="color1" />
<feMerge result="effect1_noise_3146_133202">
<feMergeNode in="shape" />
<feMergeNode in="color1" />
</feMerge>
</filter>
<clipPath id="clip0_3146_133202">
<rect width="174" height="196" fill="white"/>
</clipPath>
</defs>
</svg>
