<svg width="32" height="32" viewBox="0 0 32 32" fill="none" xmlns="http://www.w3.org/2000/svg">
<path d="M27.4872 0C29.9795 0 32 2.02046 32 4.51282V27.4872C32 29.9795 29.9795 32 27.4872 32H4.51282C2.02046 32 0 29.9795 0 27.4872V4.51282C0 2.02046 2.02046 0 4.51282 0H27.4872ZM8.0016 12.0769C7.68892 12.0773 7.4102 12.2756 7.30609 12.5705L5.20032 18.5481C5.0316 19.0282 5.38843 19.5319 5.89744 19.5321H6.1843C6.50168 19.532 6.78374 19.3282 6.88462 19.0272L7.29327 17.8109H9.5625L9.97115 19.0272C10.072 19.3281 10.3542 19.5319 10.6715 19.5321H10.9583C11.4676 19.5316 11.8237 19.0268 11.6538 18.5465L9.54006 12.5705C9.43566 12.2758 9.1572 12.0771 8.84455 12.0769H8.0016ZM12.4103 12.0769C12.0027 12.077 11.6719 12.4083 11.6715 12.8157V12.8798C11.6716 13.2874 12.0026 13.6185 12.4103 13.6186H13.8253V18.7933C13.8255 19.2009 14.1565 19.5319 14.5641 19.5321H14.8285C15.2363 19.5321 15.5671 19.201 15.5673 18.7933V13.6186H16.9728C17.3805 13.6186 17.7114 13.2875 17.7115 12.8798V12.8157C17.7111 12.4082 17.3804 12.0769 16.9728 12.0769H12.4103ZM19.5288 12.0769C19.1217 12.0774 18.7921 12.4085 18.7917 12.8157V18.7933C18.7918 19.2006 19.1216 19.5315 19.5288 19.5321H19.7564C20.1641 19.5321 20.495 19.201 20.4952 18.7933V15.601L21.8862 19.0497C21.9989 19.3289 22.2711 19.5127 22.5721 19.5128H22.8013C23.1019 19.5128 23.3725 19.3298 23.4856 19.0513L24.8878 15.5929V18.7933C24.888 19.2006 25.2177 19.5315 25.625 19.5321H25.8429C26.2507 19.5321 26.5816 19.201 26.5817 18.7933V12.8157C26.5813 12.4082 26.2505 12.0769 25.8429 12.0769H25.1282C24.8284 12.077 24.5574 12.2594 24.4439 12.5369L22.6859 16.8365L20.9295 12.5369C20.8159 12.2595 20.545 12.0769 20.2452 12.0769H19.5288ZM9.0609 16.3077H7.79487L8.42468 14.4295L9.0609 16.3077Z" fill="white"/>
</svg>
