<svg width="12" height="12" viewBox="0 0 12 12" fill="none" xmlns="http://www.w3.org/2000/svg">
<path d="M10.3829 0.277481C10.7528 -0.092492 11.3525 -0.0924931 11.7225 0.277481C12.0925 0.647455 12.0925 1.24716 11.7225 1.61714L7.33965 6L11.7225 10.3829C12.0925 10.7528 12.0925 11.3525 11.7225 11.7225C11.3525 12.0925 10.7528 12.0925 10.3829 11.7225L6 7.33965L1.61714 11.7225C1.24716 12.0925 0.647455 12.0925 0.277481 11.7225C-0.0924931 11.3525 -0.092492 10.7528 0.277481 10.3829L4.66035 6L0.277481 1.61714C-0.0924937 1.24716 -0.0924937 0.647456 0.277481 0.277481C0.647456 -0.0924937 1.24716 -0.0924937 1.61714 0.277481L6 4.66035L10.3829 0.277481Z" fill="#C9C9C9"/>
</svg>
