<svg width="30" height="30" viewBox="0 0 30 30" fill="none" xmlns="http://www.w3.org/2000/svg">
<g clip-path="url(#clip0_2363_25314)">
<path d="M26.9573 8.5127H3.04275C2.19071 8.5127 1.5 9.20341 1.5 10.0554V22.9052C1.5 23.7572 2.19071 24.4479 3.04275 24.4479H26.9573C27.8093 24.4479 28.5 23.7572 28.5 22.9052V10.0554C28.5 9.20341 27.8093 8.5127 26.9573 8.5127Z" fill="#FFBBB8"/>
<path d="M26.9573 5.55225H3.04275C2.19071 5.55225 1.5 6.24296 1.5 7.095V19.9447C1.5 20.7968 2.19071 21.4875 3.04275 21.4875H26.9573C27.8093 21.4875 28.5 20.7968 28.5 19.9447V7.095C28.5 6.24296 27.8093 5.55225 26.9573 5.55225Z" fill="#FF756C"/>
<path d="M17.7536 5.55225H12.2471V21.4875H17.7536V5.55225Z" fill="#FFDDDB"/>
<path d="M17.7536 21.4873H12.2471V24.4476H17.7536V21.4873Z" fill="#FF756C"/>
<path d="M15.5916 18.3586C13.0229 18.3586 10.9326 16.1874 10.9326 13.5204C10.9326 10.8534 13.0229 8.68213 15.5916 8.68213C16.6874 8.68213 17.7509 9.08938 18.5856 9.82738C18.9576 10.1566 18.9929 10.7259 18.6636 11.0986C18.3344 11.4714 17.7651 11.5059 17.3924 11.1766C16.8794 10.7236 16.2569 10.4836 15.5924 10.4836C14.0166 10.4836 12.7349 11.8456 12.7349 13.5204C12.7349 15.1951 14.0166 16.5571 15.5924 16.5571C16.3056 16.5571 16.9881 16.2706 17.5146 15.7509C17.8671 15.4014 18.4371 15.4044 18.7881 15.7591C19.1376 16.1131 19.1339 16.6831 18.7799 17.0326C17.9144 17.8884 16.7819 18.3586 15.5916 18.3586Z" fill="#8A2822"/>
<path d="M14.8889 13.2566H10.3109C9.81366 13.2566 9.41016 12.8531 9.41016 12.3558C9.41016 11.8586 9.81366 11.4551 10.3109 11.4551H14.8889C15.3862 11.4551 15.7897 11.8586 15.7897 12.3558C15.7897 12.8531 15.3862 13.2566 14.8889 13.2566Z" fill="#8A2822"/>
<path d="M14.8889 15.7829H10.3109C9.81366 15.7829 9.41016 15.3794 9.41016 14.8822C9.41016 14.3849 9.81366 13.9814 10.3109 13.9814H14.8889C15.3862 13.9814 15.7897 14.3849 15.7897 14.8822C15.7897 15.3794 15.3862 15.7829 14.8889 15.7829Z" fill="#8A2822"/>
</g>
<defs>
<clipPath id="clip0_2363_25314">
<rect width="30" height="30" fill="white"/>
</clipPath>
</defs>
</svg>
