<svg width="42" height="42" viewBox="0 0 42 42" fill="none" xmlns="http://www.w3.org/2000/svg">
<path d="M37.1865 21C37.1865 12.0599 29.9391 4.81251 20.999 4.8125C12.0589 4.8125 4.81152 12.0599 4.81152 21C4.81153 29.9401 12.0589 37.1875 20.999 37.1875C29.9391 37.1875 37.1865 29.9401 37.1865 21ZM39.8115 21C39.8115 31.3899 31.3889 39.8125 20.999 39.8125C10.6092 39.8125 2.18653 31.3899 2.18652 21C2.18652 10.6102 10.6092 2.1875 20.999 2.1875C31.3889 2.1875 39.8115 10.6102 39.8115 21Z" fill="#FE5F54"/>
<path d="M27.0188 14.8786C27.5003 14.3369 28.3295 14.2879 28.8713 14.7693C29.413 15.2508 29.4621 16.08 28.9807 16.6218L19.6479 27.1218C19.399 27.4019 19.0417 27.5626 18.667 27.5627C18.2921 27.5627 17.9351 27.402 17.686 27.1218L13.0188 21.8718C12.5374 21.33 12.5864 20.5008 13.1281 20.0193C13.6699 19.5379 14.4992 19.5869 14.9807 20.1286L18.6653 24.2746L27.0188 14.8786Z" fill="#FE5F54"/>
</svg>
