<svg width="22" height="22" viewBox="0 0 22 22" fill="none" xmlns="http://www.w3.org/2000/svg">
<path d="M10.751 0C16.6878 0.000266456 21.501 4.81311 21.501 10.75C21.501 16.6869 16.6878 21.4997 10.751 21.5C4.81393 21.5 1.08233e-05 16.687 0 10.75C0 4.81294 4.81392 0 10.751 0ZM15.249 7.18945C14.9394 6.91438 14.4656 6.94241 14.1904 7.25195L9.41699 12.6211L7.31152 10.252C7.03637 9.94241 6.56252 9.91438 6.25293 10.1895C5.94339 10.4646 5.91536 10.9385 6.19043 11.248L8.85742 14.248C8.99975 14.4081 9.20376 14.5 9.41797 14.5C9.63207 14.4999 9.83626 14.4081 9.97852 14.248L15.3115 8.24805C15.5866 7.93846 15.5586 7.46461 15.249 7.18945Z" fill="#FF756C"/>
</svg>
