<svg width="24" height="24" viewBox="0 0 24 24" fill="none" xmlns="http://www.w3.org/2000/svg">
<path fill-rule="evenodd" clip-rule="evenodd" d="M24 12C24 18.6276 18.6276 24 12 24C5.3724 24 0 18.6276 0 12C0 5.3724 5.3724 0 12 0C18.6276 0 24 5.3724 24 12ZM7.3332 16.6668C7.22072 16.5543 7.15753 16.4017 7.15753 16.2426C7.15753 16.0835 7.22072 15.9309 7.3332 15.8184L11.1516 12L7.3332 8.1816C7.22391 8.06844 7.16343 7.91688 7.1648 7.75956C7.16616 7.60224 7.22927 7.45175 7.34051 7.34051C7.45175 7.22927 7.60224 7.16616 7.75956 7.1648C7.91688 7.16343 8.06844 7.22391 8.1816 7.3332L12 11.1516L15.8184 7.3332C15.9316 7.22391 16.0831 7.16343 16.2404 7.1648C16.3978 7.16616 16.5482 7.22927 16.6595 7.34051C16.7707 7.45175 16.8338 7.60224 16.8352 7.75956C16.8366 7.91688 16.7761 8.06844 16.6668 8.1816L12.8484 12L16.6668 15.8184C16.7761 15.9316 16.8366 16.0831 16.8352 16.2404C16.8338 16.3978 16.7707 16.5482 16.6595 16.6595C16.5482 16.7707 16.3978 16.8338 16.2404 16.8352C16.0831 16.8366 15.9316 16.7761 15.8184 16.6668L12 12.8484L8.1816 16.6668C8.06908 16.7793 7.9165 16.8425 7.7574 16.8425C7.5983 16.8425 7.44572 16.7793 7.3332 16.6668Z" fill="#C43A31"/>
</svg>
