<svg width="18" height="18" viewBox="0 0 18 18" fill="none" xmlns="http://www.w3.org/2000/svg">
<path d="M14.8417 5.01658C15.3292 5.50445 15.6031 6.16588 15.6034 6.85559V13.0017C15.6034 13.6914 15.3294 14.3529 14.8416 14.8407C14.3539 15.3284 13.6924 15.6024 13.0027 15.6024H6.85656C6.16681 15.6024 5.50531 15.3284 5.01759 14.8407C4.52986 14.3529 4.25586 13.6914 4.25586 13.0017V6.85559C4.25586 6.83053 4.25704 6.80642 4.25941 6.78325C4.27698 6.10631 4.55839 5.46305 5.0436 4.99069C5.52881 4.51833 6.1794 4.25429 6.85656 4.25488H13.0027C13.6927 4.25488 14.3537 4.52864 14.8417 5.01658Z" fill="#1A1A1A"/>
<path d="M12.3225 2.49173C12.3677 2.57313 12.3965 2.66265 12.4072 2.75517C12.4179 2.8477 12.4102 2.94142 12.3846 3.03098C12.3591 3.12055 12.3161 3.20421 12.2583 3.27718C12.2004 3.35014 12.1287 3.411 12.0473 3.45626C11.9659 3.50153 11.8764 3.53031 11.7838 3.54098C11.6913 3.55165 11.5976 3.54399 11.508 3.51844C11.4185 3.49288 11.3348 3.44994 11.2618 3.39206C11.1889 3.33417 11.128 3.26249 11.0828 3.18109C10.926 2.89882 10.8402 2.83641 10.6388 2.83641H3.5466C3.15795 2.83641 2.83738 3.15697 2.83738 3.54562V10.6364C2.83738 10.8917 2.97497 11.1272 3.19696 11.2534C3.27789 11.2995 3.34895 11.3611 3.40608 11.4347C3.46322 11.5082 3.5053 11.5923 3.52993 11.6822C3.55456 11.772 3.56126 11.8658 3.54964 11.9582C3.53802 12.0506 3.50831 12.1398 3.4622 12.2208C3.4161 12.3017 3.35451 12.3728 3.28094 12.4299C3.20738 12.487 3.12328 12.5291 3.03345 12.5538C2.94362 12.5784 2.84982 12.5851 2.7574 12.5735C2.66499 12.5618 2.57576 12.5321 2.49483 12.486C2.16831 12.3004 1.89677 12.0315 1.7078 11.7069C1.51884 11.3823 1.41917 11.0134 1.41895 10.6378V3.54562C1.41895 2.374 2.37497 1.41797 3.5466 1.41797H10.6388C11.4147 1.41797 11.9352 1.79598 12.3225 2.49173Z" fill="#1A1A1A"/>
</svg>
