<svg width="20" height="20" viewBox="0 0 20 20" fill="none" xmlns="http://www.w3.org/2000/svg">
<g clip-path="url(#clip0_3424_36821)">
<path d="M8.14433 4.07547H14.4305V2.47799C14.4305 1.10943 13.3216 0 11.9537 0H2.47674C1.10888 0 0 1.10943 0 2.47799V11.9597C0 13.3283 1.10888 14.4377 2.47674 14.4377H4.07845V8.15346C4.07845 5.90692 5.90143 4.07547 8.14433 4.07547Z" fill="white"/>
<path d="M19.9998 17.5447C19.9998 18.8881 18.8607 20.0001 17.5809 20.0001H8.01337C6.6631 20.0001 5.58691 18.7925 5.58691 17.4718V8.15351C5.58691 6.74219 6.72345 5.58496 8.14412 5.58496H17.4526C18.7903 5.58496 19.9973 6.65666 19.9973 8.02773V17.5447H19.9998Z" fill="white"/>
</g>
<defs>
<clipPath id="clip0_3424_36821">
<rect width="20" height="20" fill="white"/>
</clipPath>
</defs>
</svg>
