<svg width="30" height="30" viewBox="0 0 30 30" fill="none" xmlns="http://www.w3.org/2000/svg">
<path d="M18.75 15C18.75 15.9946 18.3549 16.9484 17.6517 17.6517C16.9484 18.3549 15.9946 18.75 15 18.75C14.0054 18.75 13.0516 18.3549 12.3483 17.6517C11.6451 16.9484 11.25 15.9946 11.25 15C11.25 14.0054 11.6451 13.0516 12.3483 12.3483C13.0516 11.6451 14.0054 11.25 15 11.25C15.9946 11.25 16.9484 11.6451 17.6517 12.3483C18.3549 13.0516 18.75 14.0054 18.75 15Z" fill="#A8A8A8"/>
<path d="M27.3674 14.4413C24.6699 9.045 19.8799 6.25 14.9999 6.25C10.1199 6.25 5.32994 9.045 2.63244 14.4413C2.54574 14.6147 2.50061 14.806 2.50061 15C2.50061 15.194 2.54574 15.3853 2.63244 15.5587C5.32994 20.955 10.1199 23.75 14.9999 23.75C19.8799 23.75 24.6699 20.955 27.3674 15.5587C27.4541 15.3853 27.4993 15.194 27.4993 15C27.4993 14.806 27.4541 14.6147 27.3674 14.4413ZM14.9999 21.25C11.2887 21.25 7.49744 19.225 5.16244 15C7.49744 10.775 11.2874 8.75 14.9999 8.75C18.7124 8.75 22.5024 10.775 24.8374 15C22.5024 19.225 18.7112 21.25 14.9999 21.25Z" fill="#A8A8A8"/>
</svg>
