<svg width="10" height="10" viewBox="0 0 10 10" fill="none" xmlns="http://www.w3.org/2000/svg">
<path d="M8.20513 2.55814H1.79487V8.72093C1.79487 8.87512 1.86246 9.02296 1.98267 9.132C2.10289 9.24103 2.26589 9.30233 2.4359 9.30233H7.5641C7.73411 9.30233 7.89711 9.24103 8.01733 9.132C8.13754 9.02296 8.20513 8.87512 8.20513 8.72093V2.55814ZM3.58974 7.32558V4.53488C3.58974 4.34223 3.76194 4.18605 3.97436 4.18605C4.18678 4.18605 4.35897 4.34223 4.35897 4.53488V7.32558C4.35897 7.51824 4.18677 7.67442 3.97436 7.67442C3.76194 7.67442 3.58975 7.51824 3.58974 7.32558ZM5.64103 7.32558V4.53488C5.64103 4.34223 5.81322 4.18605 6.02564 4.18605C6.23806 4.18605 6.41026 4.34223 6.41026 4.53488V7.32558C6.41025 7.51824 6.23806 7.67442 6.02564 7.67442C5.81323 7.67442 5.64103 7.51824 5.64103 7.32558ZM6.66667 1.27907C6.66667 1.12487 6.59908 0.977038 6.47887 0.868005C6.35865 0.758973 6.19565 0.697675 6.02564 0.697674H3.97436C3.80435 0.697674 3.64135 0.758973 3.52113 0.868005C3.40092 0.977038 3.33333 1.12487 3.33333 1.27907V1.86047H6.66667V1.27907ZM7.4359 1.86047H9.61539C9.8278 1.86047 10 2.01665 10 2.2093C10 2.40196 9.8278 2.55814 9.61539 2.55814H8.97436V8.72093C8.97436 9.06016 8.82567 9.3854 8.5612 9.62527C8.29673 9.86514 7.93813 10 7.5641 10H2.4359C2.06188 10 1.70328 9.86514 1.4388 9.62527C1.17433 9.3854 1.02564 9.06016 1.02564 8.72093V2.55814H0.384615C0.172199 2.55814 5.28619e-07 2.40196 0 2.2093C0 2.01664 0.172198 1.86047 0.384615 1.86047H2.5641V1.27907C2.5641 0.939839 2.71279 0.614599 2.97726 0.374727C3.24174 0.134856 3.60034 0 3.97436 0H6.02564C6.39966 5.8736e-07 6.75826 0.134856 7.02274 0.374727C7.28721 0.614599 7.4359 0.93984 7.4359 1.27907V1.86047Z" fill="#A8A8A8"/>
</svg>
