<svg width="37" height="24" viewBox="0 0 37 24" fill="none" xmlns="http://www.w3.org/2000/svg">
<path d="M31.2188 11.5607C31.0227 11.5608 30.83 11.6107 30.6586 11.7058C30.4871 11.8008 30.3427 11.9379 30.2388 12.1041C29.6353 13.0738 28.9685 14.0028 28.2429 14.8849L28.0073 13.6463L25.7728 1.8872C25.6993 1.49478 25.5255 1.12807 25.2682 0.822769C25.011 0.517466 24.6791 0.283965 24.3048 0.144996C23.9305 0.00602622 23.5266 -0.0336787 23.1325 0.0297453C22.7383 0.0931693 22.3673 0.257562 22.0555 0.506922L22.0367 0.521375L18.5 3.46692L14.9633 0.521375L14.9445 0.506922C14.6329 0.257584 14.2621 0.0931252 13.8681 0.0295413C13.4742 -0.0340426 13.0704 0.00541222 12.6962 0.144068C12.322 0.282725 11.9901 0.515863 11.7326 0.820809C11.4752 1.12576 11.3011 1.49213 11.2272 1.8843L8.99418 13.639L8.75715 14.8849C8.03111 14.0026 7.36433 13.0731 6.76117 12.1027C6.65711 11.9367 6.5126 11.7999 6.3412 11.7051C6.1698 11.6103 5.97712 11.5606 5.78125 11.5607C4.24797 11.5607 2.77748 12.1698 1.69329 13.254C0.609094 14.3382 0 15.8086 0 17.3419C0 18.8752 0.609094 20.3457 1.69329 21.4299C2.77748 22.5141 4.24797 23.1232 5.78125 23.1232H31.2188C32.752 23.1232 34.2225 22.5141 35.3067 21.4299C36.3909 20.3457 37 18.8752 37 17.3419C37 15.8086 36.3909 14.3382 35.3067 13.254C34.2225 12.1698 32.752 11.5607 31.2188 11.5607ZM11.0827 15.0294H25.9159L26.283 16.9589C25.1078 18.064 23.7758 18.9893 22.3301 19.705C20.1043 20.7774 18.5087 20.8107 18.5 20.8107C18.4523 20.8107 14.8159 20.7529 10.7155 16.9661L11.0827 15.0294Z" fill="white"/>
</svg>
