<svg width="16" height="16" viewBox="0 0 16 16" fill="none" xmlns="http://www.w3.org/2000/svg">
<path d="M7.99609 0.700195C8.27416 0.700195 8.50551 0.77169 8.70996 0.911133V0.912109L14.8643 5.15234L14.873 5.1582C15.0118 5.25069 15.1146 5.36298 15.1895 5.5L15.1904 5.50195C15.2656 5.63843 15.2998 5.77524 15.2998 5.9209V14.96C15.2998 15.0195 15.2862 15.0809 15.1875 15.1709C15.0878 15.2616 14.9882 15.2998 14.8574 15.2998H10.9893C10.9102 15.2997 10.8646 15.2846 10.832 15.2637L10.8027 15.2412C10.7796 15.2199 10.7738 15.2071 10.7725 15.2041C10.7709 15.2006 10.7667 15.1887 10.7666 15.1602V10.2002C10.7666 9.76417 10.5942 9.37674 10.2725 9.08398C9.95416 8.79437 9.56132 8.66016 9.14258 8.66016H6.85742C6.43869 8.66016 6.04555 8.79436 5.72754 9.08496C5.40617 9.37716 5.2334 9.76408 5.2334 10.2002V15.1611C5.23335 15.191 5.22864 15.2026 5.22754 15.2051C5.22624 15.208 5.22022 15.2203 5.19727 15.2412C5.16194 15.2733 5.11606 15.2998 5.01172 15.2998H1.14258C1.01177 15.2998 0.912164 15.2616 0.8125 15.1709C0.713755 15.0809 0.700195 15.0195 0.700195 14.96V5.9209C0.700195 5.77524 0.734361 5.63843 0.80957 5.50195C0.866519 5.39868 0.939152 5.3098 1.03027 5.23242L1.13574 5.15332L7.29004 0.912109L7.29199 0.911133C7.49035 0.773302 7.7172 0.700278 7.99609 0.700195Z" fill="#3D3D3D" stroke="#3D3D3D" stroke-width="1.4"/>
</svg>
