<svg width="39" height="40" viewBox="0 0 39 40" fill="none" xmlns="http://www.w3.org/2000/svg">
<g clip-path="url(#clip0_1969_22708)">
<path d="M20.0646 12.5345L20.9339 15.1781H23.7485C24.2983 15.1781 24.5267 15.8729 24.0825 16.192L21.806 17.8252L22.6753 20.4687C22.8455 20.9847 22.2465 21.4143 21.8014 21.0952L19.5249 19.462L17.2483 21.0952C16.8032 21.4143 16.2052 20.9847 16.3745 20.4687L17.2438 17.8252L14.9672 16.192C14.5221 15.8729 14.7506 15.1781 15.3013 15.1781H18.1158L18.9851 12.5345C19.1553 12.0186 19.8944 12.0186 20.0646 12.5345Z" fill="white"/>
<path d="M21.6096 34.2734C21.5059 34.17 21.3839 34.0882 21.2428 34.0289C21.1017 33.9696 20.9524 33.9399 20.7941 33.9399C20.6357 33.9399 20.4864 33.9696 20.3453 34.0289C20.2042 34.0882 20.0813 34.17 19.9785 34.2734C19.8747 34.3768 19.7928 34.4972 19.7327 34.6338C19.6726 34.7705 19.6426 34.917 19.6426 35.0725C19.6426 35.228 19.6726 35.3754 19.7327 35.5138C19.7928 35.6522 19.8747 35.7736 19.9785 35.8769C20.0822 35.9803 20.2042 36.0621 20.3453 36.1214C20.4864 36.1808 20.6366 36.2104 20.7941 36.2104C20.9515 36.2104 21.1017 36.1808 21.2428 36.1214C21.3839 36.0621 21.5059 35.9812 21.6096 35.8769C21.7134 35.7736 21.7953 35.6522 21.8554 35.5138C21.9155 35.3754 21.9455 35.228 21.9455 35.0725C21.9455 34.917 21.9155 34.7714 21.8554 34.6338C21.7953 34.4972 21.7134 34.3768 21.6096 34.2734Z" fill="white"/>
<path d="M36.1874 7.11455C34.5571 4.38113 32.2769 2.06747 29.5926 0.423462C28.2536 -0.396295 26.495 0.0108872 25.6648 1.3331C24.8347 2.65532 25.247 4.39191 26.586 5.21167C28.5148 6.39277 30.0914 7.99453 31.2711 9.97291C35.248 16.6433 33.1608 25.3407 26.6179 29.3612C23.513 31.2686 19.8601 31.8475 16.3338 30.9918C12.7182 30.1145 9.66248 27.8449 7.72909 24.6018C3.75217 17.9314 5.8394 9.23405 12.3823 5.21347C13.7204 4.39191 14.13 2.65442 13.2971 1.3331C12.4633 0.012685 10.7038 -0.392699 9.36664 0.429754C4.92368 3.16048 1.79694 7.47769 0.563541 12.5877C-0.667128 17.6833 0.131169 22.9659 2.81097 27.4602C5.02471 31.1724 8.29618 33.9814 12.1975 35.5687C12.1866 35.6613 12.1793 35.7548 12.1793 35.8492C12.1793 38.1413 15.4563 40.0001 19.4987 40.0001C23.5412 40.0001 26.8181 38.1422 26.8181 35.8492C26.8181 35.7593 26.8117 35.6712 26.8017 35.5831C27.773 35.1849 28.7187 34.7058 29.6308 34.145C34.0738 31.4151 37.2005 27.097 38.4339 21.987C39.6646 16.8914 38.8663 11.6088 36.1856 7.11455H36.1874ZM2.02724 14.5715C2.02724 14.0852 2.42593 13.6915 2.91838 13.6915C3.41083 13.6915 3.80952 14.0852 3.80952 14.5715C3.80952 15.0577 3.41083 15.4514 2.91838 15.4514C2.42593 15.4514 2.02724 15.0577 2.02724 14.5715ZM3.41356 21.6823C2.92111 21.6823 2.52242 21.2886 2.52242 20.8023C2.52242 20.316 2.92111 19.9223 3.41356 19.9223C3.90601 19.9223 4.3047 20.316 4.3047 20.8023C4.3047 21.2886 3.90601 21.6823 3.41356 21.6823ZM4.22096 8.34059C4.22096 7.85431 4.61965 7.46061 5.1121 7.46061C5.60455 7.46061 6.00324 7.85431 6.00324 8.34059C6.00324 8.82687 5.60455 9.22057 5.1121 9.22057C4.61965 9.22057 4.22096 8.82687 4.22096 8.34059ZM6.00324 27.9132C5.51079 27.9132 5.1121 27.5195 5.1121 27.0332C5.1121 26.5469 5.51079 26.1532 6.00324 26.1532C6.49569 26.1532 6.89438 26.5469 6.89438 27.0332C6.89438 27.5195 6.49569 27.9132 6.00324 27.9132ZM23.4183 33.0205H24.344V35.8141H23.4183V33.0205ZM18.2571 35.4366C18.2571 35.5184 18.2499 35.5912 18.2344 35.6541C18.2235 35.7135 18.208 35.7728 18.1889 35.8303C18.1697 35.8878 18.1497 35.9454 18.127 36.0011C18.1042 36.0532 18.0778 36.1054 18.0478 36.1575C18.0177 36.2096 17.9859 36.2618 17.9522 36.3139C17.9222 36.3624 17.8876 36.4092 17.8475 36.4541C17.8084 36.4991 17.7674 36.5413 17.7265 36.5826C17.6855 36.624 17.6418 36.6626 17.5963 36.7004C17.5508 36.7381 17.5044 36.7732 17.4552 36.8065C17.4024 36.8397 17.3505 36.8703 17.2995 36.899C17.2486 36.9269 17.1949 36.9521 17.1384 36.9745C17.082 37.0006 17.0256 37.0222 16.9691 37.0384C16.9127 37.0554 16.8526 37.0707 16.788 37.086C16.6678 37.1085 16.5431 37.1193 16.4157 37.1193C16.2882 37.1193 16.1672 37.1085 16.0434 37.086C15.9833 37.0716 15.9241 37.0554 15.8659 37.0384C15.8076 37.0213 15.7521 37.0024 15.6993 36.9799C15.6429 36.9539 15.5883 36.9269 15.5355 36.899C15.4827 36.8712 15.4317 36.8406 15.3834 36.8074C15.2815 36.7399 15.1896 36.6662 15.1067 36.5844C15.0275 36.5062 14.952 36.4173 14.881 36.3166C14.8173 36.2195 14.7608 36.1161 14.7117 36.0047C14.6889 35.949 14.668 35.8923 14.6498 35.8348C14.6307 35.7773 14.6161 35.7188 14.6043 35.6595C14.5888 35.6002 14.5788 35.54 14.5733 35.478C14.5679 35.4168 14.5651 35.3548 14.5651 35.291V34.8676C14.5651 34.7373 14.5779 34.6151 14.6043 34.5C14.6152 34.4407 14.6307 34.3822 14.6498 34.3247C14.6689 34.2672 14.6889 34.2106 14.7117 34.1548C14.7608 34.0434 14.8173 33.9391 14.881 33.8429C14.9147 33.7944 14.9502 33.7486 14.9884 33.7036C15.0257 33.6587 15.0658 33.6164 15.1067 33.5751C15.1896 33.4933 15.2815 33.4187 15.3834 33.3522C15.4772 33.2856 15.5828 33.229 15.6993 33.185C15.7521 33.1589 15.8076 33.1373 15.8659 33.1212C15.9241 33.1041 15.9833 33.0906 16.0434 33.0798C16.2955 33.0277 16.544 33.0277 16.7889 33.0798C16.9127 33.1023 17.0301 33.1373 17.1393 33.1859C17.1958 33.2083 17.2495 33.2335 17.3005 33.2614C17.3514 33.2892 17.4033 33.3198 17.4561 33.3531C17.5053 33.3863 17.5517 33.4223 17.5972 33.4591C17.6427 33.496 17.6855 33.5355 17.7274 33.576L17.0784 34.2231C17.0292 34.1746 16.9828 34.136 16.9373 34.1063C16.8954 34.0766 16.8435 34.0488 16.7789 34.0227C16.7525 34.0119 16.7252 34.002 16.697 33.9948C16.6687 33.9877 16.6396 33.9796 16.6096 33.9724C16.4812 33.9427 16.3556 33.9427 16.2309 33.9724C16.1672 33.9832 16.1089 34.0002 16.0561 34.0227C16.0297 34.0335 16.0033 34.0461 15.9769 34.0587C15.9505 34.0721 15.9241 34.0874 15.8977 34.1063C15.875 34.1252 15.8513 34.1432 15.8267 34.162C15.8022 34.1809 15.7803 34.2007 15.7621 34.2231C15.7394 34.242 15.7202 34.2618 15.7029 34.2843C15.6857 34.3067 15.6684 34.331 15.6492 34.3571C15.6119 34.4092 15.5837 34.4613 15.5646 34.5135C15.5382 34.5656 15.5191 34.6231 15.5082 34.6861C15.4972 34.749 15.4909 34.811 15.4909 34.8703V35.2937C15.4909 35.3602 15.4963 35.4222 15.5082 35.478C15.5191 35.5409 15.5382 35.5984 15.5646 35.6505C15.5837 35.7027 15.6119 35.7548 15.6492 35.8069C15.6866 35.8627 15.7248 35.9094 15.7621 35.9463C15.7812 35.9651 15.8022 35.9831 15.8267 36.002C15.8513 36.0209 15.875 36.0388 15.8977 36.0577C15.9241 36.0766 15.9505 36.0919 15.9769 36.1054C16.0033 36.1188 16.0297 36.1305 16.0561 36.1413C16.1089 36.1638 16.1672 36.18 16.2309 36.1916C16.3556 36.2213 16.4812 36.2213 16.6096 36.1916C16.6396 36.1845 16.6687 36.1764 16.697 36.1692C16.7252 36.162 16.7525 36.1521 16.7789 36.1413C16.8426 36.1152 16.8954 36.0874 16.9373 36.0577C16.9637 36.0388 16.9882 36.0209 17.011 36.002C17.0337 35.9831 17.0565 35.9651 17.0793 35.9463C17.0984 35.9238 17.1166 35.9013 17.1357 35.8797C17.1548 35.8573 17.173 35.833 17.1921 35.8069C17.2258 35.7548 17.254 35.7027 17.2768 35.6505C17.2841 35.6317 17.2913 35.6137 17.2968 35.5948C17.3023 35.5759 17.3086 35.558 17.3168 35.5391H16.4193V34.6249H18.2662L18.2608 35.4411L18.2571 35.4366ZM22.7065 35.8752C22.5972 36.1242 22.4489 36.3409 22.2604 36.5251C22.072 36.7094 21.8517 36.855 21.5996 36.9629C21.3475 37.0707 21.078 37.1247 20.7922 37.1247C20.5064 37.1247 20.2369 37.0707 19.9848 36.9629C19.7327 36.855 19.5124 36.7094 19.324 36.5251C19.1355 36.3409 18.9872 36.1242 18.8779 35.8752C18.7687 35.6263 18.7141 35.3584 18.7141 35.0726C18.7141 34.7867 18.7687 34.5243 18.8779 34.2753C18.9872 34.0263 19.1355 33.8097 19.324 33.6254C19.5124 33.4411 19.7327 33.2955 19.9848 33.1877C20.2369 33.0798 20.5064 33.0259 20.7922 33.0259C21.078 33.0259 21.3475 33.0798 21.5996 33.1877C21.8517 33.2955 22.072 33.4411 22.2604 33.6254C22.4489 33.8097 22.5972 34.0263 22.7065 34.2753C22.8157 34.5243 22.8703 34.7903 22.8703 35.0726C22.8703 35.3548 22.8157 35.6263 22.7065 35.8752ZM24.2739 36.9656C24.1665 37.0716 24.0336 37.1247 23.8762 37.1247C23.7187 37.1247 23.5912 37.0716 23.4838 36.9656C23.3764 36.8595 23.3227 36.7301 23.3227 36.5782C23.3227 36.4262 23.3764 36.2968 23.4838 36.1907C23.5912 36.0847 23.7223 36.0316 23.8762 36.0316C24.03 36.0316 24.1674 36.0847 24.2739 36.1907C24.3804 36.2968 24.4351 36.4262 24.4351 36.5782C24.4351 36.7301 24.3813 36.8595 24.2739 36.9656ZM33.0452 27.9132C32.5527 27.9132 32.154 27.5195 32.154 27.0332C32.154 26.5469 32.5527 26.1532 33.0452 26.1532C33.5376 26.1532 33.9363 26.5469 33.9363 27.0332C33.9363 27.5195 33.5376 27.9132 33.0452 27.9132ZM33.9363 9.22057C33.4439 9.22057 33.0452 8.82687 33.0452 8.34059C33.0452 7.85431 33.4439 7.46061 33.9363 7.46061C34.4288 7.46061 34.8275 7.85431 34.8275 8.34059C34.8275 8.82687 34.4288 9.22057 33.9363 9.22057ZM35.6349 21.6823C35.1424 21.6823 34.7437 21.2886 34.7437 20.8023C34.7437 20.316 35.1424 19.9223 35.6349 19.9223C36.1273 19.9223 36.526 20.316 36.526 20.8023C36.526 21.2886 36.1273 21.6823 35.6349 21.6823ZM36.13 15.4514C35.6376 15.4514 35.2389 15.0577 35.2389 14.5715C35.2389 14.0852 35.6376 13.6915 36.13 13.6915C36.6225 13.6915 37.0212 14.0852 37.0212 14.5715C37.0212 15.0577 36.6225 15.4514 36.13 15.4514Z" fill="white"/>
</g>
<defs>
<clipPath id="clip0_1969_22708">
<rect width="39" height="40" fill="white"/>
</clipPath>
</defs>
</svg>
