<svg width="12" height="12" viewBox="0 0 12 12" fill="none" xmlns="http://www.w3.org/2000/svg">
<path d="M6.0005 4.5C5.60268 4.5 5.22114 4.65804 4.93984 4.93934C4.65854 5.22064 4.5005 5.60218 4.5005 6C4.5005 6.39782 4.65854 6.77936 4.93984 7.06066C5.22114 7.34196 5.60268 7.5 6.0005 7.5C6.39832 7.5 6.77986 7.34196 7.06116 7.06066C7.34246 6.77936 7.5005 6.39782 7.5005 6C7.5005 5.60218 7.34246 5.22064 7.06116 4.93934C6.77986 4.65804 6.39832 4.5 6.0005 4.5ZM6.0005 3.5C6.66354 3.5 7.29943 3.76339 7.76827 4.23223C8.23711 4.70107 8.5005 5.33696 8.5005 6C8.5005 6.66304 8.23711 7.29893 7.76827 7.76777C7.29943 8.23661 6.66354 8.5 6.0005 8.5C5.33746 8.5 4.70157 8.23661 4.23273 7.76777C3.76389 7.29893 3.5005 6.66304 3.5005 6C3.5005 5.33696 3.76389 4.70107 4.23273 4.23223C4.70157 3.76339 5.33746 3.5 6.0005 3.5ZM9.2505 3.375C9.2505 3.54076 9.18465 3.69973 9.06744 3.81694C8.95023 3.93415 8.79126 4 8.6255 4C8.45974 4 8.30077 3.93415 8.18356 3.81694C8.06635 3.69973 8.0005 3.54076 8.0005 3.375C8.0005 3.20924 8.06635 3.05027 8.18356 2.93306C8.30077 2.81585 8.45974 2.75 8.6255 2.75C8.79126 2.75 8.95023 2.81585 9.06744 2.93306C9.18465 3.05027 9.2505 3.20924 9.2505 3.375ZM6.0005 2C4.7635 2 4.5615 2.0035 3.986 2.029C3.594 2.0475 3.331 2.1 3.087 2.195C2.88292 2.27019 2.69836 2.39032 2.547 2.5465C2.39064 2.69781 2.27033 2.88237 2.195 3.0865C2.1 3.3315 2.0475 3.594 2.0295 3.9855C2.0035 4.5375 2 4.7305 2 6C2 7.2375 2.0035 7.439 2.029 8.0145C2.0475 8.406 2.1 8.6695 2.1945 8.913C2.2795 9.1305 2.3795 9.287 2.5455 9.453C2.714 9.621 2.8705 9.7215 3.0855 9.8045C3.3325 9.9 3.5955 9.953 3.9855 9.971C4.5375 9.997 4.7305 10 6 10C7.2375 10 7.439 9.9965 8.0145 9.971C8.4055 9.9525 8.6685 9.9 8.913 9.8055C9.11708 9.73032 9.30164 9.61018 9.453 9.454C9.6215 9.286 9.722 9.1295 9.805 8.914C9.9 8.668 9.953 8.405 9.971 8.014C9.997 7.4625 10 7.269 10 6C10 4.763 9.9965 4.561 9.971 3.9855C9.9525 3.5945 9.8995 3.3305 9.805 3.0865C9.72982 2.88242 9.60968 2.69786 9.4535 2.5465C9.30219 2.39014 9.11763 2.26983 8.9135 2.1945C8.6685 2.0995 8.4055 2.047 8.0145 2.029C7.463 2.003 7.27 2 6 2M6 1C7.3585 1 7.528 1.005 8.0615 1.03C8.5935 1.055 8.9565 1.1385 9.275 1.2625C9.605 1.3895 9.883 1.5615 10.161 1.839C10.4153 2.08887 10.6121 2.39124 10.7375 2.725C10.861 3.0435 10.945 3.4065 10.97 3.939C10.9935 4.472 11 4.6415 11 6C11 7.3585 10.995 7.528 10.97 8.061C10.945 8.594 10.861 8.956 10.7375 9.275C10.6121 9.60876 10.4153 9.91113 10.161 10.161C9.91113 10.4153 9.60876 10.6121 9.275 10.7375C8.9565 10.861 8.5935 10.945 8.0615 10.97C7.528 10.9935 7.3585 11 6 11C4.6415 11 4.472 10.995 3.9385 10.97C3.4065 10.945 3.044 10.861 2.725 10.7375C2.39124 10.6121 2.08887 10.4153 1.839 10.161C1.58465 9.91113 1.38791 9.60876 1.2625 9.275C1.1385 8.9565 1.055 8.5935 1.03 8.061C1.006 7.528 1 7.3585 1 6C1 4.6415 1.005 4.472 1.03 3.939C1.055 3.406 1.1385 3.044 1.2625 2.725C1.38791 2.39124 1.58465 2.08887 1.839 1.839C2.08887 1.58465 2.39124 1.38791 2.725 1.2625C3.0435 1.1385 3.406 1.055 3.9385 1.03C4.4725 1.0065 4.642 1 6.0005 1" fill="white"/>
</svg>
