<svg width="16" height="16" viewBox="0 0 16 16" fill="none" xmlns="http://www.w3.org/2000/svg">
<path d="M13.147 10.5727L11.8597 9.28634L13.1479 8C13.8304 7.31744 14.2138 6.39174 14.2137 5.42655C14.2136 4.46135 13.8301 3.53572 13.1475 2.85328C12.4649 2.17084 11.5391 1.7875 10.5739 1.78759C9.60861 1.78767 8.68293 2.17118 8.00045 2.85373L6.71404 4.14007L5.42581 2.85373L6.71313 1.5674C7.73963 0.557536 9.12362 -0.0058179 10.5636 4.53122e-05C12.0036 0.00590852 13.383 0.580514 14.4012 1.5987C15.4195 2.61688 15.9941 3.99615 16 5.43607C16.0058 6.87599 15.4424 8.2599 14.4325 9.28634L13.147 10.5727ZM10.5733 13.1463L9.28687 14.4326C8.26037 15.4425 6.87638 16.0058 5.43638 16C3.99638 15.9941 2.61703 15.4195 1.59879 14.4013C0.580547 13.3831 0.00590886 12.0038 4.53148e-05 10.5639C-0.00581823 9.12401 0.557568 7.7401 1.56748 6.71366L2.8539 5.42732L4.14031 6.71366L2.8539 8C2.17142 8.68244 1.78801 9.60802 1.78801 10.5731C1.78801 11.5382 2.17142 12.4638 2.8539 13.1463C3.53637 13.8287 4.46201 14.2121 5.42718 14.2121C6.39234 14.2121 7.31798 13.8287 8.00045 13.1463L9.28687 11.8599L10.5733 13.1463ZM10.5733 4.14007L11.8606 5.42732L5.42672 11.859L4.14031 10.5727L10.5733 4.14007Z" fill="#C43A31"/>
</svg>
