<svg width="18" height="22" viewBox="0 0 18 22" fill="none" xmlns="http://www.w3.org/2000/svg">
<path d="M8.75 0C11.0706 1.01027e-06 13.2966 0.921558 14.9375 2.5625C16.5784 4.20344 17.5 6.42936 17.5 8.75C17.5 11.4994 15.9891 14.2135 14.3447 16.374C12.683 18.5573 10.7897 20.2969 9.84082 21.1162C9.82805 21.1272 9.81524 21.1383 9.80176 21.1484C9.49853 21.3765 9.12939 21.5 8.75 21.5C8.37061 21.5 8.00148 21.3765 7.69824 21.1484C7.68475 21.1383 7.67195 21.1272 7.65918 21.1162C6.7103 20.2969 4.817 18.5573 3.15527 16.374C1.51088 14.2135 8.73416e-07 11.4994 0 8.75C0 6.42936 0.921558 4.20344 2.5625 2.5625C4.20344 0.921557 6.42936 0 8.75 0ZM12.2803 6.21973C11.9875 5.92692 11.5126 5.92708 11.2197 6.21973L7.75 9.68945L6.28027 8.21973C5.98746 7.92692 5.51264 7.92708 5.21973 8.21973C4.92683 8.51262 4.92683 8.98738 5.21973 9.28027L7.21973 11.2803C7.51264 11.5729 7.98746 11.5731 8.28027 11.2803L12.2803 7.28027C12.5728 6.98744 12.5728 6.51256 12.2803 6.21973Z" fill="#FFDDDB"/>
</svg>
