<svg width="16" height="20" viewBox="0 0 16 20" fill="none" xmlns="http://www.w3.org/2000/svg">
<path d="M4.57275 4.41847V0.697653C4.57275 0.31235 4.87976 0 5.25847 0C5.63718 0 5.94418 0.31235 5.94418 0.697653V4.41847C5.94418 4.80377 5.63718 5.11613 5.25847 5.11613C4.87976 5.11613 4.57275 4.80377 4.57275 4.41847ZM10.0585 4.41847V0.697653C10.0585 0.31235 10.3655 0 10.7442 0C11.1229 1.19858e-06 11.4299 0.312351 11.4299 0.697653V4.41847C11.4299 4.80377 11.1229 5.11612 10.7442 5.11613C10.3655 5.11613 10.0585 4.80377 10.0585 4.41847Z" fill="#FF756C"/>
<path d="M13.4857 1.86133C14.8743 1.86133 16 3.00661 16 4.41939V17.4423C16 18.855 14.8743 20.0003 13.4857 20.0003H2.51429C1.1257 20.0003 1.83779e-05 18.855 0 17.4423V4.41939C0 3.00661 1.12568 1.86133 2.51429 1.86133H13.4857ZM4.34286 14.8842C3.96415 14.8842 3.65714 15.1965 3.65714 15.5818C3.65718 15.9671 3.96417 16.2795 4.34286 16.2795H8.91429C9.29297 16.2795 9.59996 15.9671 9.6 15.5818C9.6 15.1965 9.29299 14.8842 8.91429 14.8842H4.34286ZM4.34286 11.1634C3.96415 11.1634 3.65714 11.4757 3.65714 11.861C3.65718 12.2463 3.96417 12.5587 4.34286 12.5587H11.6571C12.0358 12.5587 12.3428 12.2463 12.3429 11.861C12.3429 11.4757 12.0359 11.1634 11.6571 11.1634H4.34286ZM4.34286 7.44256C3.96415 7.44256 3.65714 7.75491 3.65714 8.14021C3.65718 8.52548 3.96417 8.83786 4.34286 8.83786H9.82857C10.2073 8.83786 10.5142 8.52548 10.5143 8.14021C10.5143 7.75491 10.2073 7.44256 9.82857 7.44256H4.34286Z" fill="#FF756C"/>
</svg>
