<svg width="40" height="40" viewBox="0 0 40 40" fill="none" xmlns="http://www.w3.org/2000/svg">
<g clip-path="url(#clip0_2717_7941)">
<path d="M18.011 9.53613L17.458 9.66313V14.2961C17.64 14.2761 17.826 14.2631 18.011 14.2471V9.53613Z" fill="#901A18"/>
<path d="M19.0108 14.184C19.2918 14.172 19.5738 14.161 19.8588 14.159C21.8038 13.43 23.7738 13.408 24.8758 14.51C24.9398 14.574 24.9908 14.647 25.0468 14.717C30.1408 15.884 33.7488 18.755 33.7488 22.12C33.7488 22.536 33.6768 22.942 33.5708 23.341C34.8648 22.204 35.7528 20.901 36.1078 19.5C36.1238 19.434 36.1468 19.368 36.1598 19.302C36.1958 19.138 36.2088 18.97 36.2298 18.804C36.2528 18.599 36.2838 18.395 36.2838 18.187C36.2838 13.223 29.6608 9.16402 21.2558 8.79102L19.0088 9.30801V14.185L19.0108 14.184Z" fill="#901A18"/>
<path d="M16.4578 9.89307L15.9048 10.0201V14.5141C16.0858 14.4811 16.2738 14.4601 16.4578 14.4311V9.89307Z" fill="#901A18"/>
<path d="M6.43882 23.3819C6.32482 22.9699 6.24982 22.5499 6.24982 22.1199C6.24982 18.7649 9.83582 15.8999 14.9048 14.7269V10.2509L13.3978 10.5979C13.3418 10.6109 13.2858 10.6139 13.2318 10.6099C13.0078 10.5899 12.8098 10.4309 12.7528 10.2029C12.7068 10.0209 12.7688 9.84094 12.8888 9.71094C7.46382 11.2419 3.71582 14.4569 3.71582 18.1869C3.71582 18.2889 3.73682 18.3879 3.74182 18.4889C3.84082 20.2959 4.82782 21.9699 6.43982 23.3829L6.43882 23.3819Z" fill="#901A18"/>
<path d="M15.0979 22.8322C15.0649 22.7822 15.0359 22.7312 15.0049 22.6812C14.9569 22.7172 14.9039 22.7442 14.8569 22.7822C14.9379 22.7952 15.0179 22.8172 15.0979 22.8322Z" fill="#F77F00"/>
<path d="M16.3468 16.3721C16.3828 16.3371 16.4208 16.3031 16.4578 16.2691V14.4321C16.2738 14.4611 16.0858 14.4821 15.9048 14.5151V15.8371C16.0988 15.9691 16.2488 16.1561 16.3468 16.3721Z" fill="#F77F00"/>
<path d="M12.8818 22.701C13.1018 22.686 13.3228 22.679 13.5438 22.68C13.8488 22.317 14.1958 22.007 14.5728 21.751C14.5168 21.58 14.4678 21.407 14.4338 21.23C13.8328 21.618 13.3028 22.108 12.8818 22.701Z" fill="#F77F00"/>
<path d="M22.2 25.7621C21.412 25.3061 20.526 25.1061 19.64 25.1711C20.214 25.7311 20.718 26.3681 21.13 27.0801C21.224 27.2441 21.209 27.4351 21.118 27.5861C20.844 27.5971 20.571 27.6071 20.294 27.6101C20.286 27.5981 20.271 27.5931 20.264 27.5801C19.57 26.3781 18.588 25.4101 17.418 24.7341C17.152 24.6311 16.896 24.5011 16.65 24.3461C16.286 24.1861 15.912 24.0451 15.521 23.9401C13.507 23.4001 11.401 23.6761 9.593 24.7201C9.354 24.8591 9.048 24.7761 8.91 24.5371C8.772 24.2981 8.854 23.9921 9.093 23.8541C9.9 23.3881 10.761 23.0631 11.646 22.8711C11.648 22.7901 11.662 22.7091 11.706 22.6331C12.344 21.5281 13.27 20.6551 14.38 20.0841C14.397 19.8791 14.426 19.6731 14.473 19.4651C13.167 20.0561 12.025 21.0391 11.255 22.3721C11.162 22.5321 10.994 22.6221 10.821 22.6221C10.736 22.6221 10.65 22.6011 10.571 22.5551C10.332 22.4171 10.25 22.1121 10.388 21.8721C10.481 21.7111 10.586 21.5611 10.688 21.4091C10.628 21.4511 10.559 21.4821 10.479 21.4821H8.803C8.551 21.4821 8.36 21.2281 8.456 20.9951C8.648 20.5291 9.106 20.2011 9.641 20.2011C10.176 20.2011 10.634 20.5291 10.826 20.9951C10.849 21.0521 10.855 21.1101 10.847 21.1651C11.879 19.7401 13.317 18.7441 14.905 18.2281V16.8921H14.345C14.093 16.8921 13.903 16.6381 13.998 16.4051C14.155 16.0241 14.494 15.7461 14.905 15.6541V14.7241C9.836 15.8971 6.25 18.7621 6.25 22.1171C6.25 22.5481 6.325 22.9671 6.439 23.3791C7.352 24.1791 8.46 24.8971 9.739 25.5001C9.781 25.4171 9.838 25.3421 9.925 25.2921C13.233 23.3821 17.44 24.4301 19.492 27.6011C19.072 27.5941 18.653 27.5831 18.241 27.5581C18.819 27.5941 19.405 27.6161 20 27.6161C21.307 27.6161 22.571 27.5151 23.788 27.3451C23.401 26.6991 22.871 26.1471 22.2 25.7601V25.7621Z" fill="#F77F00"/>
<path d="M10.812 25.9634C11.113 26.0834 11.425 26.1944 11.741 26.3024C13.228 25.8004 14.883 25.9434 16.268 26.7494C16.492 26.8804 16.57 27.1564 16.464 27.3884C17.04 27.4624 17.626 27.5224 18.224 27.5594C16.437 25.4074 13.372 24.7164 10.812 25.9634Z" fill="#F77F00"/>
<path d="M11.8232 26.3311C12.1462 26.4401 12.4732 26.5441 12.8102 26.6401C12.4742 26.5441 12.1462 26.4401 11.8232 26.3311Z" fill="#F77F00"/>
<path d="M18.011 14.2471C17.826 14.2631 17.641 14.2761 17.458 14.2961V15.4481C17.639 15.3181 17.823 15.1951 18.011 15.0771V14.2481V14.2471Z" fill="#F77F00"/>
<path d="M27.6538 26.4971C27.6338 26.5031 27.6128 26.5091 27.5928 26.5161C27.6128 26.5101 27.6338 26.5041 27.6538 26.4971Z" fill="#F77F00"/>
<path d="M10.0211 25.6293C9.94509 25.5953 9.86409 25.5643 9.78809 25.5283C9.86309 25.5633 9.94409 25.5943 10.0211 25.6293Z" fill="#F77F00"/>
<path d="M16.2838 27.3613C15.1158 27.2033 13.9988 26.9723 12.9438 26.6763C13.9988 26.9713 15.1158 27.2033 16.2838 27.3613Z" fill="#F77F00"/>
<path d="M26.5903 23.8613C27.2213 24.5823 27.7413 25.4133 28.1163 26.3373C28.5043 26.2063 28.8833 26.0683 29.2503 25.9193L29.2493 25.9183C28.6643 24.9063 27.6863 24.1823 26.5913 23.8623L26.5903 23.8613Z" fill="#F77F00"/>
<path d="M27.3843 20.6151C26.5523 20.3921 25.7063 20.3151 24.8713 20.3681C24.7543 20.6101 24.6243 20.8491 24.4873 21.0851C27.2493 20.7471 30.0773 22.0281 31.5543 24.5861C31.5853 24.6401 31.5973 24.6991 31.6063 24.7581C31.8223 24.6301 32.0353 24.4991 32.2383 24.3641C32.1983 24.3321 32.1553 24.3021 32.1283 24.2551C31.0853 22.4471 29.3993 21.1551 27.3843 20.6151Z" fill="#F77F00"/>
<path d="M23.379 22.645C23.23 22.817 23.076 22.983 22.917 23.143C23.125 23.238 23.33 23.341 23.531 23.457C24.882 24.237 25.91 25.411 26.514 26.815C26.732 26.759 26.945 26.698 27.158 26.637C26.411 24.847 25.042 23.46 23.38 22.646L23.379 22.645Z" fill="#F77F00"/>
<path d="M19.8592 14.1592C19.5732 14.1612 19.2922 14.1722 19.0112 14.1842V14.5182C19.2912 14.3822 19.5752 14.2652 19.8592 14.1592Z" fill="#F77F00"/>
<path d="M23.0315 24.322C22.7215 24.143 22.3995 23.998 22.0705 23.877C21.8255 24.061 21.5805 24.221 21.3345 24.36C21.8055 24.482 22.2675 24.645 22.7015 24.896C23.6445 25.44 24.3845 26.233 24.8605 27.182C25.0835 27.141 25.2995 27.09 25.5185 27.044C24.9905 25.911 24.1395 24.962 23.0325 24.323L23.0315 24.322Z" fill="#F77F00"/>
<path d="M25.2913 19.3533C26.0753 19.3483 26.8653 19.4403 27.6433 19.6493C29.9163 20.2573 31.8173 21.7163 32.9943 23.7543C33.0033 23.7693 33.0063 23.7863 33.0103 23.8023C33.2053 23.6513 33.3933 23.4973 33.5723 23.3403C33.6783 22.9413 33.7503 22.5353 33.7503 22.1193C33.7503 18.7543 30.1413 15.8823 25.0483 14.7163C25.9363 15.8103 25.9183 17.5783 25.2913 19.3533ZM26.7763 17.8333C26.9683 17.3673 27.4263 17.0393 27.9613 17.0393C28.4963 17.0393 28.9543 17.3673 29.1463 17.8333C29.2423 18.0663 29.0513 18.3203 28.7993 18.3203H27.1233C26.8713 18.3203 26.6803 18.0663 26.7763 17.8333Z" fill="#F77F00"/>
<path d="M24.4624 22.0831C24.7654 22.2631 25.0534 22.4651 25.3334 22.6801C25.3404 22.6801 25.3474 22.6751 25.3544 22.6751C27.3134 22.6751 29.1364 23.7241 30.1144 25.4171C30.1354 25.4541 30.1444 25.4931 30.1534 25.5321C30.3784 25.4271 30.5884 25.3121 30.8034 25.2001C30.7604 25.1671 30.7164 25.1351 30.6884 25.0861C29.3924 22.8411 26.8844 21.7281 24.4624 22.0831Z" fill="#F77F00"/>
<path d="M36.1088 19.4988C35.7528 20.8998 34.8648 22.2028 33.5718 23.3398C33.3918 23.4978 33.2038 23.6508 33.0098 23.8018C33.0128 23.8128 33.0168 23.8228 33.0208 23.8338C32.7768 24.0218 32.5248 24.2058 32.2578 24.3828C32.2508 24.3768 32.2458 24.3688 32.2378 24.3628C32.0348 24.4978 31.8218 24.6278 31.6058 24.7568C31.6078 24.7688 31.6148 24.7798 31.6158 24.7908C31.3628 24.9398 31.0928 25.0798 30.8228 25.2188C30.8158 25.2128 30.8098 25.2048 30.8028 25.1988C30.5878 25.3108 30.3778 25.4258 30.1528 25.5308C30.1548 25.5368 30.1578 25.5428 30.1588 25.5498C29.8698 25.6838 29.5728 25.8128 29.2678 25.9358C29.2628 25.9278 29.2538 25.9248 29.2488 25.9168C28.8818 26.0658 28.5028 26.2038 28.1148 26.3348C28.1168 26.3408 28.1208 26.3458 28.1228 26.3518C27.9698 26.4028 27.8098 26.4478 27.6528 26.4958C27.6328 26.5018 27.6118 26.5078 27.5918 26.5148C27.4478 26.5578 27.3078 26.6048 27.1618 26.6468C27.1598 26.6428 27.1578 26.6388 27.1568 26.6358C26.9438 26.6968 26.7308 26.7578 26.5128 26.8138C26.5148 26.8178 26.5178 26.8218 26.5198 26.8258C26.4308 26.8488 26.3368 26.8658 26.2468 26.8868C26.2128 26.8948 26.1778 26.9018 26.1438 26.9098C25.9368 26.9568 25.7308 27.0058 25.5208 27.0498C25.5198 27.0468 25.5178 27.0448 25.5168 27.0418C25.2978 27.0878 25.0828 27.1388 24.8588 27.1798C24.8598 27.1828 24.8618 27.1848 24.8638 27.1878C24.5128 27.2508 24.1518 27.2988 23.7918 27.3488L23.7888 27.3448C22.5708 27.5158 21.3068 27.6158 20.0008 27.6158C19.4058 27.6158 18.8198 27.5938 18.2418 27.5578C18.2368 27.5578 18.2308 27.5578 18.2248 27.5578C17.6268 27.5198 17.0418 27.4608 16.4648 27.3868V27.3878C16.4038 27.3798 16.3458 27.3688 16.2848 27.3598C15.1168 27.2018 14.0008 26.9698 12.9448 26.6748C12.9008 26.6628 12.8558 26.6508 12.8108 26.6388C12.4748 26.5428 12.1468 26.4388 11.8238 26.3298C11.7948 26.3198 11.7648 26.3118 11.7368 26.3028L11.7408 26.3018C11.4248 26.1938 11.1138 26.0828 10.8118 25.9628C10.8088 25.9648 10.8048 25.9648 10.8018 25.9668C10.5338 25.8598 10.2778 25.7438 10.0208 25.6288C9.94484 25.5948 9.86384 25.5638 9.78784 25.5278C9.77084 25.5198 9.75284 25.5128 9.73584 25.5058L9.73884 25.5028C8.45984 24.8988 7.35184 24.1818 6.43884 23.3818C4.82684 21.9688 3.83984 20.2948 3.74084 18.4878C3.72384 18.4458 3.71484 18.4188 3.71484 18.4188V22.5928C3.71484 31.5868 11.0058 38.8778 19.9998 38.8778C28.9938 38.8778 36.2848 31.5868 36.2848 22.5928C36.2848 22.5928 36.3018 18.3768 36.2848 18.4188C36.2778 18.5478 36.2468 18.6738 36.2308 18.8018C36.2098 18.9688 36.1968 19.1358 36.1608 19.2998C36.1468 19.3668 36.1258 19.4318 36.1088 19.4978V19.4988Z" fill="#CB2C29"/>
<path d="M16.3468 16.3724C16.2498 16.1564 16.0988 15.9694 15.9048 15.8374V16.8334C16.0128 16.7124 16.1208 16.5914 16.2408 16.4714C16.2748 16.4374 16.3118 16.4054 16.3468 16.3724Z" fill="#901A18"/>
<path d="M13.9989 16.4082C13.9029 16.6412 14.0939 16.8952 14.3459 16.8952H14.9059V15.6572C14.4959 15.7492 14.1559 16.0272 13.9989 16.4082Z" fill="#901A18"/>
<path d="M10.8259 20.9971C10.6339 20.5311 10.1759 20.2031 9.64093 20.2031C9.10593 20.2031 8.64793 20.5311 8.45593 20.9971C8.35993 21.2301 8.55093 21.4841 8.80293 21.4841H10.4789C10.5589 21.4841 10.6269 21.4531 10.6879 21.4111C10.7419 21.3301 10.7909 21.2451 10.8469 21.1671C10.8539 21.1121 10.8489 21.0541 10.8259 20.9971Z" fill="#901A18"/>
<path d="M27.1228 18.3201H28.7988C29.0508 18.3201 29.2418 18.0661 29.1458 17.8331C28.9538 17.3671 28.4958 17.0391 27.9608 17.0391C27.4258 17.0391 26.9677 17.3671 26.7757 17.8331C26.6797 18.0661 26.8708 18.3201 27.1228 18.3201Z" fill="#901A18"/>
<path d="M15.9049 10.021L16.4579 9.89397V8.64697L15.8789 8.80397C15.8909 8.84597 15.9049 8.88697 15.9049 8.93297V10.021Z" fill="#3D3D3D"/>
<path d="M17.4576 9.66312L18.0106 9.53612V8.22412L17.4316 8.38112C17.4426 8.42312 17.4576 8.46412 17.4576 8.51012V9.66312Z" fill="#3D3D3D"/>
<path d="M36.8969 4.54906L36.7079 3.79406C36.6679 3.63306 36.5659 3.49706 36.4219 3.41306C36.2789 3.32906 36.1109 3.30706 35.9499 3.35006L18.9839 7.95906C18.9949 8.00106 19.0099 8.04206 19.0099 8.08806V9.30506L21.2569 8.78806L36.4389 5.29606C36.6009 5.25806 36.7389 5.16006 36.8249 5.01806C36.9119 4.87606 36.9379 4.71006 36.8969 4.54906Z" fill="#3D3D3D"/>
<path d="M12.7516 10.2019C12.8086 10.4299 13.0076 10.5889 13.2306 10.6089C13.2846 10.6139 13.3406 10.6099 13.3966 10.5969L14.9036 10.2499V9.06787L13.1336 9.54887C13.0326 9.57587 12.9536 9.63687 12.8866 9.70987C12.7666 9.83987 12.7056 10.0199 12.7516 10.2019Z" fill="#3D3D3D"/>
<path d="M15.4598 8.44393L35.6878 2.31193C35.8468 2.26293 35.9768 2.15593 36.0548 2.00793C36.1318 1.86093 36.1458 1.69193 36.0938 1.53393L35.8528 0.793932C35.8018 0.634932 35.6908 0.506932 35.5418 0.433932C35.3928 0.359932 35.2248 0.348932 35.0668 0.402932L12.7268 8.14393C12.4508 8.23993 12.2998 8.54393 12.3898 8.82093C12.4548 9.02193 12.6308 9.15993 12.8288 9.18893C12.9038 9.19993 12.9838 9.19493 13.0608 9.17093L15.0828 8.55793C15.1698 8.48293 15.2808 8.43293 15.4048 8.43293C15.4238 8.43293 15.4408 8.44193 15.4588 8.44393H15.4598Z" fill="#3D3D3D"/>
<path d="M14.9053 10.2496V18.2296C14.9153 18.2266 14.9253 18.2236 14.9353 18.2196C15.1773 17.7546 15.4973 17.2896 15.9053 16.8316V8.93164C15.9053 8.88564 15.8913 8.84464 15.8793 8.80264C15.8263 8.60864 15.6643 8.46564 15.4593 8.44264C15.4403 8.44064 15.4243 8.43164 15.4053 8.43164C15.2813 8.43164 15.1713 8.48164 15.0833 8.55664C14.9763 8.64864 14.9053 8.77964 14.9053 8.93164V10.2496Z" fill="#FFAD00"/>
<path d="M16.458 9.89277V16.2678C16.771 15.9748 17.105 15.6998 17.458 15.4468V8.50977C17.458 8.46377 17.443 8.42276 17.432 8.38076C17.374 8.16876 17.189 8.00977 16.958 8.00977C16.682 8.00977 16.458 8.23377 16.458 8.50977V9.89277Z" fill="#FFAD00"/>
<path d="M18.0112 9.53587V15.0759C18.3372 14.8719 18.6702 14.6829 19.0112 14.5179V8.08887C19.0112 8.04287 18.9962 8.00187 18.9852 7.95987C18.9272 7.74787 18.7422 7.58887 18.5112 7.58887C18.2352 7.58887 18.0112 7.81287 18.0112 8.08887V9.53587Z" fill="#FFAD00"/>
<path d="M23.5313 23.4561C23.3313 23.3401 23.1253 23.2371 22.9173 23.1421L22.9153 23.1441C22.6363 23.4231 22.3543 23.6631 22.0703 23.8771C22.3993 23.9981 22.7213 24.1431 23.0313 24.3221C24.1383 24.9611 24.9883 25.9101 25.5173 27.0431C25.5183 27.0461 25.5203 27.0481 25.5213 27.0511C25.7313 27.0071 25.9373 26.9581 26.1443 26.9111C26.1783 26.9031 26.2133 26.8961 26.2473 26.8881C26.3383 26.8671 26.4313 26.8491 26.5203 26.8271C26.5183 26.8231 26.5153 26.8191 26.5133 26.8151C25.9093 25.4101 24.8813 24.2371 23.5303 23.4571L23.5313 23.4561Z" fill="#FFAD00"/>
<path d="M24.8604 27.1799V27.1899C24.5104 27.2499 24.1504 27.2999 23.7904 27.3499C23.4004 26.6999 22.8704 26.1499 22.2004 25.7599C21.4104 25.3099 20.5304 25.1099 19.6404 25.1699C20.2104 25.7299 20.7204 26.3699 21.1304 27.0799C21.2204 27.2399 21.2104 27.4399 21.1204 27.5899C20.8504 27.5999 20.5704 27.6099 20.2904 27.6099C20.2904 27.5999 20.2704 27.5899 20.2604 27.5799C19.5704 26.3799 18.5904 25.4099 17.4204 24.7299C17.6704 24.8299 17.9204 24.9099 18.1804 24.9599C18.5904 25.0299 19.0004 25.0399 19.4304 24.9999C20.0504 24.9299 20.6904 24.7199 21.3304 24.3599C21.8004 24.4799 22.2704 24.6499 22.7004 24.8999C23.6404 25.4399 24.3804 26.2299 24.8604 27.1799Z" fill="#FFAD00"/>
<path d="M10.8473 21.1667C10.7913 21.2447 10.7423 21.3297 10.6883 21.4107C10.5863 21.5627 10.4813 21.7127 10.3883 21.8737C10.2503 22.1127 10.3323 22.4187 10.5713 22.5567C10.6503 22.6027 10.7363 22.6237 10.8213 22.6237C10.9943 22.6237 11.1623 22.5337 11.2553 22.3737C12.0243 21.0407 13.1673 20.0577 14.4733 19.4667C14.5653 19.0547 14.7203 18.6387 14.9363 18.2207C14.9263 18.2237 14.9163 18.2267 14.9063 18.2307C13.3173 18.7467 11.8803 19.7417 10.8483 21.1677L10.8473 21.1667Z" fill="#FFAD00"/>
<path d="M16.6502 24.3498C16.2902 24.1898 15.9102 24.0498 15.5202 23.9398C13.5102 23.3998 11.4002 23.6798 9.5902 24.7198C9.3502 24.8598 9.0502 24.7798 8.9102 24.5398C8.7702 24.2998 8.8502 23.9898 9.0902 23.8598C9.9002 23.3898 10.7602 23.0598 11.6502 22.8698C11.6502 22.7898 11.6602 22.7098 11.7102 22.6298C12.3402 21.5298 13.2702 20.6598 14.3802 20.0898C14.3502 20.4798 14.3602 20.8598 14.4302 21.2298C13.8302 21.6198 13.3002 22.1098 12.8802 22.6998C13.1002 22.6898 13.3202 22.6798 13.5402 22.6798C13.8502 22.3198 14.2002 22.0098 14.5702 21.7498C14.6802 22.0698 14.8302 22.3798 15.0102 22.6798C14.9602 22.7198 14.9002 22.7398 14.8602 22.7798C14.9402 22.7898 15.0202 22.8198 15.1002 22.8298C15.2802 23.1098 15.5002 23.3798 15.7502 23.6298C16.0302 23.9098 16.3302 24.1498 16.6502 24.3498Z" fill="#FFAD00"/>
<path d="M27.6431 19.6488C26.8651 19.4398 26.0761 19.3468 25.2911 19.3528C25.1711 19.6928 25.0331 20.0328 24.8711 20.3678C25.7061 20.3148 26.5521 20.3918 27.3841 20.6148C29.4001 21.1548 31.0841 22.4468 32.1271 24.2548C32.1541 24.3018 32.1971 24.3318 32.2371 24.3638C32.2441 24.3698 32.2491 24.3778 32.2571 24.3838C32.5241 24.2068 32.7771 24.0228 33.0201 23.8348C33.0161 23.8248 33.0121 23.8138 33.0091 23.8028C33.0051 23.7868 33.0021 23.7698 32.9931 23.7548C31.8161 21.7168 29.9161 20.2578 27.6421 19.6498L27.6431 19.6488Z" fill="#FFAD00"/>
<path d="M31.6204 24.7901C31.3604 24.9401 31.0904 25.08 30.8204 25.22C30.8204 25.21 30.8104 25.2101 30.8004 25.2001C30.7604 25.1701 30.7204 25.1401 30.6904 25.0901C29.3904 22.8401 26.8804 21.7301 24.4604 22.0801C24.7604 22.2601 25.0504 22.4601 25.3304 22.6801C25.3404 22.6801 25.3504 22.6801 25.3504 22.6701C27.3104 22.6701 29.1404 23.7201 30.1104 25.4201C30.1304 25.4501 30.1404 25.4901 30.1504 25.5301C30.1504 25.5401 30.1604 25.54 30.1604 25.55C29.8704 25.69 29.5704 25.8101 29.2704 25.9401C29.2604 25.9301 29.2504 25.9301 29.2504 25.9201C28.6604 24.9001 27.6804 24.1801 26.5904 23.8601C27.2204 24.5801 27.7404 25.4101 28.1204 26.3401V26.3501C27.9704 26.4001 27.8104 26.4501 27.6504 26.5001C27.6304 26.5001 27.6104 26.5101 27.5904 26.5201C27.4504 26.5601 27.3104 26.6101 27.1604 26.6501V26.64C26.4104 24.85 25.0404 23.4601 23.3804 22.6401C23.4904 22.5201 23.5904 22.3801 23.7004 22.2501C23.8004 22.1101 23.9004 21.9801 24.0004 21.8401C24.1704 21.5901 24.3404 21.3401 24.4904 21.0901C27.2504 20.7501 30.0804 22.0301 31.5504 24.5901C31.5804 24.6401 31.6004 24.7001 31.6004 24.7601C31.6104 24.7701 31.6104 24.7801 31.6204 24.7901Z" fill="#FFAD00"/>
<path d="M9.92533 25.2949C9.83933 25.3449 9.78233 25.4199 9.73933 25.5029L9.73633 25.5059C9.75333 25.5139 9.77133 25.5209 9.78833 25.5279C9.86333 25.5629 9.94433 25.5939 10.0213 25.6289C10.2773 25.7449 10.5333 25.8609 10.8023 25.9669C10.8053 25.9659 10.8093 25.9649 10.8123 25.9629C13.3713 24.7159 16.4363 25.4069 18.2243 27.5589C18.2293 27.5589 18.2353 27.5589 18.2413 27.5589C18.6533 27.5839 19.0723 27.5949 19.4923 27.6019C17.4403 24.4319 13.2333 23.3829 9.92533 25.2929V25.2949Z" fill="#FFAD00"/>
<path d="M16.2683 26.749C14.8833 25.944 13.2273 25.801 11.7413 26.302L11.7373 26.303C11.7663 26.313 11.7963 26.321 11.8243 26.33C12.1473 26.439 12.4753 26.543 12.8113 26.639C12.8553 26.652 12.9003 26.663 12.9453 26.675C14.0003 26.971 15.1173 27.202 16.2853 27.36C16.3463 27.368 16.4043 27.38 16.4653 27.388V27.387C16.5703 27.156 16.4933 26.879 16.2693 26.748L16.2683 26.749Z" fill="#FFAD00"/>
<path d="M18.011 15.0759C17.823 15.1939 17.639 15.3169 17.458 15.4469C17.105 15.6999 16.771 15.9749 16.458 16.2679C16.421 16.3029 16.383 16.3359 16.347 16.3709C16.312 16.4039 16.275 16.4359 16.241 16.4689C16.121 16.5889 16.013 16.7099 15.905 16.8309C15.497 17.2889 15.176 17.7539 14.935 18.2189C14.718 18.6359 14.564 19.0529 14.472 19.4649C14.425 19.6729 14.396 19.8789 14.379 20.0839C14.347 20.4739 14.363 20.8579 14.434 21.2289C14.468 21.4059 14.517 21.5789 14.573 21.7499C14.679 22.0729 14.825 22.3829 15.005 22.6789C15.036 22.7299 15.065 22.7809 15.098 22.8299C15.285 23.1129 15.501 23.3819 15.752 23.6319C16.03 23.9099 16.332 24.1449 16.65 24.3439C16.896 24.4989 17.153 24.6289 17.418 24.7319C17.667 24.8289 17.922 24.9049 18.184 24.9539C18.587 25.0289 19.005 25.0409 19.43 24.9939C20.054 24.9239 20.694 24.7169 21.334 24.3589C21.58 24.2209 21.826 24.0609 22.07 23.8759C22.354 23.6619 22.636 23.4219 22.915 23.1429L22.917 23.1409C23.076 22.9819 23.23 22.8159 23.379 22.6429C23.49 22.5149 23.594 22.3809 23.699 22.2469C23.804 22.1119 23.904 21.9749 24.002 21.8349C24.174 21.5899 24.337 21.3399 24.487 21.0829C24.624 20.8469 24.754 20.6079 24.871 20.3659C25.033 20.0309 25.171 19.6909 25.291 19.3509C25.918 17.5759 25.936 15.8079 25.048 14.7139C24.992 14.6449 24.94 14.5709 24.877 14.5069C23.775 13.4049 21.805 13.4269 19.86 14.1559C19.576 14.2629 19.292 14.3799 19.012 14.5149C18.671 14.6799 18.338 14.8689 18.012 15.0729L18.011 15.0759ZM21.256 18.1299C22.296 19.1699 22.296 20.8549 21.256 21.8949C20.216 22.9349 18.531 22.9349 17.491 21.8949C16.451 20.8549 16.451 19.1699 17.491 18.1299C18.531 17.0899 20.216 17.0899 21.256 18.1299Z" fill="white"/>
<path d="M17.4909 18.1301C16.4509 19.1701 16.4509 20.8551 17.4909 21.8951C18.5309 22.9351 20.2159 22.9351 21.2559 21.8951C22.2959 20.8551 22.2959 19.1701 21.2559 18.1301C20.2159 17.0901 18.5309 17.0901 17.4909 18.1301Z" fill="#FFCD00"/>
</g>
<defs>
<clipPath id="clip0_2717_7941">
<rect width="40" height="40" fill="white"/>
</clipPath>
</defs>
</svg>
