<svg width="22" height="20" viewBox="0 0 22 20" fill="none" xmlns="http://www.w3.org/2000/svg">
<path d="M10.7578 0C11.2441 8.51718e-05 11.7224 0.129191 12.1426 0.374023C12.5617 0.618388 12.9088 0.969803 13.1484 1.3916L21.1475 15.3887C21.3886 15.8064 21.5155 16.2813 21.5156 16.7637C21.5156 17.2459 21.3893 17.72 21.1484 18.1377C20.9075 18.5556 20.5601 18.903 20.1426 19.1445C19.7251 19.3859 19.2508 19.5131 18.7686 19.5137H2.76758V19.5127C2.28541 19.5158 1.80994 19.3925 1.39063 19.1543C0.969506 18.9148 0.619187 18.5678 0.375007 18.1494C0.130828 17.7308 0.00120086 17.2551 6.76188e-06 16.7705C-0.0010669 16.2857 0.125734 15.8085 0.368171 15.3887H0.369147L8.36719 1.3916C8.60693 0.969678 8.95378 0.618418 9.37305 0.374023C9.79325 0.129236 10.2715 3.23698e-05 10.7578 0ZM10.7676 14.0137C10.3534 14.0137 10.0176 14.3495 10.0176 14.7637C10.0176 15.1779 10.3534 15.5137 10.7676 15.5137H10.7774C11.1916 15.5137 11.5274 15.1779 11.5274 14.7637C11.5274 14.3495 11.1916 14.0137 10.7774 14.0137H10.7676ZM10.7676 6.01367C10.3534 6.01368 10.0176 6.34947 10.0176 6.76367V11.7637C10.0176 12.1779 10.3534 12.5136 10.7676 12.5137C11.1818 12.5137 11.5176 12.1779 11.5176 11.7637V6.76367C11.5176 6.34946 11.1818 6.01367 10.7676 6.01367Z" fill="#FF9500"/>
</svg>
