<svg width="12" height="12" viewBox="0 0 12 12" fill="none" xmlns="http://www.w3.org/2000/svg">
<g clip-path="url(#clip0_2605_4422)">
<path fill-rule="evenodd" clip-rule="evenodd" d="M6.6 0.6C6.6 0.44087 6.53679 0.288258 6.42426 0.175736C6.31174 0.0632141 6.15913 0 6 0C5.84087 0 5.68826 0.0632141 5.57574 0.175736C5.46321 0.288258 5.4 0.44087 5.4 0.6V1.8C5.4 1.95913 5.46321 2.11174 5.57574 2.22426C5.68826 2.33679 5.84087 2.4 6 2.4C6.15913 2.4 6.31174 2.33679 6.42426 2.22426C6.53679 2.11174 6.6 1.95913 6.6 1.8V0.6ZM2.6058 1.7574C2.49213 1.65081 2.34145 1.59262 2.18564 1.59515C2.02983 1.59768 1.88112 1.66073 1.77097 1.77096C1.66082 1.88118 1.59787 2.02994 1.59545 2.18575C1.59303 2.34156 1.65133 2.49221 1.758 2.6058L2.6064 3.4542C2.71956 3.56349 2.87112 3.62397 3.02844 3.6226C3.18576 3.62124 3.33625 3.55814 3.44749 3.44689C3.55874 3.33565 3.62184 3.18516 3.6232 3.02784C3.62457 2.87052 3.5641 2.71896 3.4548 2.6058L2.6058 1.7574ZM10.2426 2.6058C10.3519 2.49264 10.4124 2.34108 10.411 2.18376C10.4096 2.02644 10.3465 1.87595 10.2353 1.76471C10.124 1.65346 9.97356 1.59036 9.81624 1.589C9.65892 1.58763 9.50736 1.64811 9.3942 1.7574L8.5458 2.6058C8.43651 2.71896 8.37603 2.87052 8.3774 3.02784C8.37876 3.18516 8.44186 3.33565 8.55311 3.44689C8.66436 3.55814 8.81484 3.62124 8.97216 3.6226C9.12948 3.62397 9.28104 3.56349 9.3942 3.4542L10.2426 2.6058ZM6 3.5C5.33696 3.5 4.70107 3.76339 4.23223 4.23223C3.76339 4.70107 3.5 5.33696 3.5 6C3.5 6.66304 3.76339 7.29893 4.23223 7.76777C4.70107 8.23661 5.33696 8.5 6 8.5C6.66304 8.5 7.29893 8.23661 7.76777 7.76777C8.23661 7.29893 8.5 6.66304 8.5 6C8.5 5.33696 8.23661 4.70107 7.76777 4.23223C7.29893 3.76339 6.66304 3.5 6 3.5ZM0.6 5.4C0.44087 5.4 0.288258 5.46321 0.175736 5.57574C0.0632141 5.68826 0 5.84087 0 6C0 6.15913 0.0632141 6.31174 0.175736 6.42426C0.288258 6.53679 0.44087 6.6 0.6 6.6H1.8C1.95913 6.6 2.11174 6.53679 2.22426 6.42426C2.33679 6.31174 2.4 6.15913 2.4 6C2.4 5.84087 2.33679 5.68826 2.22426 5.57574C2.11174 5.46321 1.95913 5.4 1.8 5.4H0.6ZM10.2 5.4C10.0409 5.4 9.88826 5.46321 9.77574 5.57574C9.66321 5.68826 9.6 5.84087 9.6 6C9.6 6.15913 9.66321 6.31174 9.77574 6.42426C9.88826 6.53679 10.0409 6.6 10.2 6.6H11.4C11.5591 6.6 11.7117 6.53679 11.8243 6.42426C11.9368 6.31174 12 6.15913 12 6C12 5.84087 11.9368 5.68826 11.8243 5.57574C11.7117 5.46321 11.5591 5.4 11.4 5.4H10.2ZM3.4542 9.3942C3.51151 9.33885 3.55722 9.27265 3.58866 9.19944C3.62011 9.12624 3.63666 9.04751 3.63735 8.96784C3.63804 8.88817 3.62286 8.80917 3.59269 8.73543C3.56252 8.66169 3.51797 8.5947 3.46164 8.53836C3.4053 8.48203 3.33831 8.43748 3.26457 8.40731C3.19083 8.37714 3.11183 8.36196 3.03216 8.36265C2.95249 8.36334 2.87376 8.37989 2.80056 8.41134C2.72736 8.44278 2.66115 8.48849 2.6058 8.5458L1.7574 9.3942C1.70009 9.44955 1.65438 9.51576 1.62294 9.58896C1.59149 9.66216 1.57494 9.74089 1.57425 9.82056C1.57356 9.90023 1.58874 9.97923 1.61891 10.053C1.64908 10.1267 1.69363 10.1937 1.74996 10.25C1.8063 10.3064 1.87329 10.3509 1.94703 10.3811C2.02077 10.4113 2.09977 10.4264 2.17944 10.4258C2.25911 10.4251 2.33784 10.4085 2.41104 10.3771C2.48425 10.3456 2.55045 10.2999 2.6058 10.2426L3.4542 9.3942ZM9.3942 8.5458C9.28104 8.43651 9.12948 8.37603 8.97216 8.3774C8.81484 8.37876 8.66436 8.44186 8.55311 8.55311C8.44186 8.66436 8.37876 8.81484 8.3774 8.97216C8.37603 9.12948 8.43651 9.28104 8.5458 9.3942L9.3942 10.2426C9.50736 10.3519 9.65892 10.4124 9.81624 10.411C9.97356 10.4096 10.124 10.3465 10.2353 10.2353C10.3465 10.124 10.4096 9.97356 10.411 9.81624C10.4124 9.65892 10.3519 9.50736 10.2426 9.3942L9.3942 8.5458ZM6.6 10.2C6.6 10.0409 6.53679 9.88826 6.42426 9.77574C6.31174 9.66321 6.15913 9.6 6 9.6C5.84087 9.6 5.68826 9.66321 5.57574 9.77574C5.46321 9.88826 5.4 10.0409 5.4 10.2V11.4C5.4 11.5591 5.46321 11.7117 5.57574 11.8243C5.68826 11.9368 5.84087 12 6 12C6.15913 12 6.31174 11.9368 6.42426 11.8243C6.53679 11.7117 6.6 11.5591 6.6 11.4V10.2Z" fill="#F77F00"/>
</g>
<defs>
<clipPath id="clip0_2605_4422">
<rect width="12" height="12" fill="white"/>
</clipPath>
</defs>
</svg>
