<svg width="18" height="18" viewBox="0 0 18 18" fill="none" xmlns="http://www.w3.org/2000/svg">
<path d="M16.3636 9C16.3636 4.93318 13.0668 1.63636 9 1.63636C4.93318 1.63636 1.63636 4.93318 1.63636 9C1.63636 13.0668 4.93318 16.3636 9 16.3636C13.0668 16.3636 16.3636 13.0668 16.3636 9ZM18 9C18 13.9706 13.9706 18 9 18C4.02944 18 0 13.9706 0 9C0 4.02944 4.02944 0 9 0C13.9706 0 18 4.02944 18 9Z" fill="#595959"/>
<path d="M8 9.16667V5.83333C8 5.3731 8.44772 5 9 5C9.55228 5 10 5.3731 10 5.83333V9.16667C10 9.6269 9.55228 10 9 10C8.44772 10 8 9.6269 8 9.16667Z" fill="#595959"/>
<path d="M9.00486 11C9.55446 11 10 11.4477 10 12C10 12.5523 9.55446 13 9.00486 13H8.99514C8.44554 13 8 12.5523 8 12C8 11.4477 8.44554 11 8.99514 11H9.00486Z" fill="#595959"/>
</svg>
