<svg width="24" height="24" viewBox="0 0 24 24" fill="none" xmlns="http://www.w3.org/2000/svg">
<path d="M12 1.25C17.9371 1.25 22.75 6.06294 22.75 12C22.75 17.9371 17.9371 22.75 12 22.75C6.06294 22.75 1.25 17.9371 1.25 12C1.25 6.06294 6.06294 1.25 12 1.25ZM16.5303 7.46973C16.2374 7.17683 15.7626 7.17683 15.4697 7.46973L12 10.9395L8.53027 7.46973C8.23738 7.17683 7.76262 7.17683 7.46973 7.46973C7.17683 7.76262 7.17683 8.23738 7.46973 8.53027L10.9395 12L7.46973 15.4697C7.17683 15.7626 7.17683 16.2374 7.46973 16.5303C7.76262 16.8232 8.23738 16.8232 8.53027 16.5303L12 13.0605L15.4697 16.5303C15.7626 16.8232 16.2374 16.8232 16.5303 16.5303C16.8232 16.2374 16.8232 15.7626 16.5303 15.4697L13.0605 12L16.5303 8.53027C16.8232 8.23738 16.8232 7.76262 16.5303 7.46973Z" fill="#FF756C"/>
</svg>
