<svg width="24" height="24" viewBox="0 0 24 24" fill="none" xmlns="http://www.w3.org/2000/svg">
<path d="M11.9997 1.25C17.9367 1.25 22.7497 6.06294 22.7497 12C22.7497 17.9371 17.9367 22.75 11.9997 22.75C6.06262 22.75 1.24968 17.9371 1.24967 12C1.24967 6.06294 6.06261 1.25 11.9997 1.25ZM16.5299 7.46973C16.2371 7.17683 15.7623 7.17683 15.4694 7.46973L11.9997 10.9395L8.52995 7.46973C8.23705 7.17683 7.76229 7.17683 7.4694 7.46973C7.17651 7.76262 7.17651 8.23738 7.4694 8.53027L10.9391 12L7.4694 15.4697C7.17651 15.7626 7.17651 16.2374 7.4694 16.5303C7.76229 16.8232 8.23705 16.8232 8.52995 16.5303L11.9997 13.0605L15.4694 16.5303C15.7623 16.8232 16.2371 16.8232 16.5299 16.5303C16.8228 16.2374 16.8228 15.7626 16.5299 15.4697L13.0602 12L16.5299 8.53027C16.8228 8.23738 16.8228 7.76262 16.5299 7.46973Z" fill="#C9C9C9"/>
</svg>
