<svg width="16" height="16" viewBox="0 0 16 16" fill="none" xmlns="http://www.w3.org/2000/svg">
<g clip-path="url(#clip0_2363_43166)">
<path d="M8.00036 0C12.4183 0.000198293 16 3.58185 16 8C16 12.4181 12.4183 15.9998 8.00036 16C3.58229 16 8.05417e-06 12.4183 0 8C0 3.58172 3.58229 0 8.00036 0ZM11.3476 5.35029C11.1172 5.14558 10.7646 5.16644 10.5598 5.3968L7.00768 9.39244L5.44089 7.62936C5.23613 7.399 4.88351 7.37814 4.65313 7.58285C4.42279 7.78761 4.40193 8.14025 4.60662 8.37064L6.59127 10.6032C6.69718 10.7223 6.849 10.7907 7.0084 10.7907C7.16773 10.7906 7.31968 10.7223 7.42553 10.6032L11.3941 6.13808C11.5988 5.90769 11.5779 5.55506 11.3476 5.35029Z" fill="#FF756C"/>
</g>
<defs>
<clipPath id="clip0_2363_43166">
<rect width="16" height="16" fill="white"/>
</clipPath>
</defs>
</svg>
