<svg width="32" height="32" viewBox="0 0 32 32" fill="none" xmlns="http://www.w3.org/2000/svg">
<g clip-path="url(#clip0_2584_44330)">
<path d="M16.0007 0C24.8365 0.000396585 32 7.16369 32 16C32 24.8363 24.8365 31.9996 16.0007 32C7.16459 32 1.61083e-05 24.8365 0 16C0 7.16345 7.16458 0 16.0007 0ZM22.6952 10.7006C22.2344 10.2912 21.5292 10.3329 21.1197 10.7936L14.0154 18.7849L10.8818 15.2587C10.4723 14.798 9.76703 14.7563 9.30626 15.1657C8.84557 15.5752 8.80385 16.2805 9.21324 16.7413L13.1825 21.2064C13.3944 21.4447 13.698 21.5814 14.0168 21.5814C14.3355 21.5813 14.6394 21.4446 14.8511 21.2064L22.7882 12.2762C23.1976 11.8154 23.1559 11.1101 22.6952 10.7006Z" fill="#FF756C"/>
</g>
<defs>
<clipPath id="clip0_2584_44330">
<rect width="32" height="32" fill="white"/>
</clipPath>
</defs>
</svg>
