<svg width="36" height="36" viewBox="0 0 36 36" fill="none" xmlns="http://www.w3.org/2000/svg">
<g clip-path="url(#clip0_3146_121923)">
<path d="M18.0008 0C27.9411 0.000446159 36 8.05915 36 18C36 27.9408 27.9411 35.9996 18.0008 36C8.06016 36 1.81219e-05 27.9411 0 18C0 8.05888 8.06015 0 18.0008 0ZM25.5321 12.0382C25.0137 11.5776 24.2203 11.6245 23.7596 12.1428L15.7673 21.133L12.242 17.1661C11.7813 16.6477 10.9879 16.6008 10.4695 17.0614C9.95127 17.5221 9.90434 18.3156 10.3649 18.8339L14.8304 23.8572C15.0687 24.1252 15.4103 24.2791 15.7689 24.2791C16.1274 24.2789 16.4693 24.1252 16.7075 23.8572L25.6367 13.8107C26.0973 13.2923 26.0504 12.4989 25.5321 12.0382Z" fill="#FF756C"/>
</g>
<defs>
<clipPath id="clip0_3146_121923">
<rect width="36" height="36" fill="white"/>
</clipPath>
</defs>
</svg>
