<svg width="93" height="93" viewBox="0 0 93 93" fill="none" xmlns="http://www.w3.org/2000/svg">
<path d="M63.669 18.9437C60.2937 18.9437 57.558 21.8229 57.558 25.3753L55.938 35.4996L48.8992 28.0914L35.6466 14.1434C35.6466 14.1434 35.6445 14.1411 35.6423 14.1389C33.3018 11.6733 29.5466 11.6319 27.2563 14.0423C24.966 16.4528 25.0075 20.4051 27.348 22.8684L40.6049 36.8209L40.5874 36.8416L23.6888 19.0562C21.3505 16.593 17.5975 16.5516 15.3094 18.9597C13.0213 21.3679 13.0628 25.3156 15.4011 27.7789L32.2997 45.5642L32.2735 45.5918L17.8442 30.4053C15.5212 27.9604 11.7572 27.9558 9.43636 30.3984C7.11772 32.8387 7.1199 36.8025 9.44291 39.2474L13.8531 43.8891C11.7943 42.4759 9.04556 42.685 7.28147 44.5417C5.24665 46.6833 5.28813 50.199 7.37535 52.3934L26.4135 72.4307C36.3344 82.8721 52.4208 82.8721 62.3416 72.4307C67.302 67.2099 69.7822 60.367 69.7822 53.524V25.3753C69.7822 21.8229 67.0444 18.9437 63.669 18.9437Z" fill="#E68E51"/>
<path d="M72.0943 20.9123C68.9546 20.9123 66.4107 23.6215 66.4107 26.9625L64.933 36.2961L57.0544 27.9125L43.8649 13.8775L43.8628 13.8729C41.8736 11.7585 38.6862 11.7193 36.7404 13.7899C34.7946 15.8604 34.8314 19.2522 36.8184 21.3688L50.0122 35.4084L48.7229 36.778L31.9019 18.8786C29.9041 16.7527 26.6993 16.7159 24.7449 18.7956C22.7904 20.8754 22.8251 24.2856 24.8229 26.4114L41.6439 44.3108L40.3612 45.6758L25.9583 30.3496C24.006 28.2722 20.8446 28.2699 18.8966 30.3427C16.9486 32.4156 16.9508 35.7796 18.9031 37.8571L33.306 53.1833L31.9777 54.599L23.2779 45.3415C21.2996 43.234 18.1317 43.1925 16.2032 45.2446C14.2748 47.2967 14.3138 50.6677 16.2921 52.7728L24.9941 62.0326L28.2725 65.5212L34.3439 71.9818L34.7404 72.4038C44.5865 82.881 60.5516 82.881 70.3977 72.4038C75.3207 67.1652 77.7822 60.2987 77.7822 53.4323V26.9625C77.7822 23.6215 75.2362 20.9123 72.0987 20.9123H72.0943Z" fill="#FFCCA8"/>
<path d="M59.8587 13.7837C61.7799 13.7837 63.3375 12.2262 63.3375 10.305C63.3375 8.38368 61.7799 6.82617 59.8587 6.82617C57.9374 6.82617 56.3799 8.38368 56.3799 10.305C56.3799 12.2262 57.9374 13.7837 59.8587 13.7837Z" fill="#EDCCF8"/>
<path d="M23.6653 86.9586C25.5866 86.9586 27.1441 85.401 27.1441 83.4798C27.1441 81.5585 25.5866 80.001 23.6653 80.001C21.744 80.001 20.1865 81.5585 20.1865 83.4798C20.1865 85.401 21.744 86.9586 23.6653 86.9586Z" fill="#F66570"/>
<path d="M77.7693 3.59877L72.8438 6.08314C71.8196 6.59976 71.4081 7.84886 71.9247 8.8731L74.409 13.7986C74.9257 14.8228 76.1748 15.2343 77.199 14.7177L82.1245 12.2333C83.1487 11.7167 83.5602 10.4676 83.0436 9.44337L80.5592 4.5179C80.0426 3.49366 78.7935 3.08215 77.7693 3.59877Z" fill="#B44BD7"/>
<path d="M13.8008 76.0399L12.4064 71.6533C12.1161 70.7402 11.1407 70.2353 10.2276 70.5255L5.84098 71.9199C4.92792 72.2101 4.42301 73.1856 4.71325 74.0987L6.10764 78.4853C6.39788 79.3984 7.37335 79.9033 8.28641 79.613L12.673 78.2187C13.5861 77.9284 14.091 76.9529 13.8008 76.0399Z" fill="#6376FF"/>
<path d="M87.1809 20.9576C89.1022 20.9576 90.6597 19.4001 90.6597 17.4788C90.6597 15.5575 89.1022 14 87.1809 14C85.2596 14 83.7021 15.5575 83.7021 17.4788C83.7021 19.4001 85.2596 20.9576 87.1809 20.9576Z" fill="#7896FF"/>
</svg>
