<svg width="24" height="24" viewBox="0 0 24 24" fill="none" xmlns="http://www.w3.org/2000/svg">
<path d="M1.99989 12.0005H21.9999H1.99989ZM19.9999 12.0005V20.0005C19.9999 20.531 19.7892 21.0397 19.4141 21.4147C19.039 21.7898 18.5303 22.0005 17.9999 22.0005H5.99989C5.46946 22.0005 4.96075 21.7898 4.58568 21.4147C4.21061 21.0397 3.99989 20.531 3.99989 20.0005V12.0005M3.99989 8.00053L19.9999 4.00053L3.99989 8.00053ZM8.85989 6.78053L8.40989 4.97053C8.34542 4.71576 8.33178 4.45079 8.36977 4.19075C8.40776 3.93071 8.49663 3.6807 8.63129 3.45503C8.76595 3.22935 8.94377 3.03243 9.15458 2.87551C9.36539 2.7186 9.60506 2.60477 9.85989 2.54053L11.7999 2.06053C12.0553 1.99622 12.321 1.98299 12.5815 2.02162C12.8421 2.06025 13.0924 2.14998 13.3182 2.28564C13.544 2.4213 13.7408 2.60023 13.8972 2.81214C14.0537 3.02406 14.1667 3.2648 14.2299 3.52053L14.6799 5.32053" fill="#FF756C"/>
<path d="M19.2499 12.7501H4.74989V20.0001C4.75001 20.3315 4.88179 20.6496 5.1161 20.8839C5.3505 21.1182 5.66848 21.2501 5.99989 21.2501H17.9999C18.3313 21.2501 18.6493 21.1182 18.8837 20.8839C19.118 20.6496 19.2498 20.3315 19.2499 20.0001V12.7501ZM11.62 1.33213C11.9702 1.24439 12.3342 1.22551 12.6913 1.27842C13.0496 1.33153 13.3945 1.45517 13.705 1.6417C14.0152 1.82817 14.2858 2.07412 14.5009 2.36533C14.7156 2.65617 14.87 2.98711 14.9569 3.33799L15.2274 4.41904L19.8183 3.27158C20.2199 3.17138 20.6269 3.41591 20.7274 3.81748C20.8279 4.21933 20.5834 4.62718 20.1815 4.72764L4.18153 8.72764C3.77986 8.82786 3.37287 8.58336 3.27235 8.18174C3.17189 7.77989 3.41641 7.37204 3.81825 7.27158L7.95204 6.2374L7.68251 5.15244C7.59392 4.80223 7.5756 4.43861 7.62782 4.08115C7.68008 3.72371 7.80209 3.37965 7.9872 3.06943C8.17234 2.75925 8.41715 2.48825 8.70692 2.27256C8.99671 2.05692 9.32639 1.90089 9.67665 1.8126L9.67958 1.81162L11.62 1.33213ZM12.4716 2.76279C12.3088 2.73866 12.1429 2.74705 11.9833 2.78721L11.9804 2.78818L10.0399 3.26768C9.88189 3.30797 9.73329 3.37926 9.60243 3.47666C9.47085 3.57464 9.35939 3.69714 9.27528 3.83799C9.19118 3.97893 9.13597 4.13556 9.1122 4.29795C9.08848 4.46032 9.09641 4.62616 9.13661 4.78525L9.13759 4.78916L9.40712 5.87412L13.7724 4.78232L13.5018 3.70127V3.69932C13.4624 3.53958 13.3915 3.38932 13.2938 3.25693C13.1961 3.12448 13.0727 3.01262 12.9315 2.92783C12.7905 2.84314 12.6343 2.78693 12.4716 2.76279ZM20.7499 20.0001C20.7498 20.7293 20.4598 21.4288 19.9442 21.9444C19.4285 22.46 18.7291 22.7501 17.9999 22.7501H5.99989C5.27066 22.7501 4.57126 22.46 4.05556 21.9444C3.53994 21.4288 3.25001 20.7293 3.24989 20.0001V12.7501H1.99989C1.58583 12.7501 1.25014 12.4141 1.24989 12.0001C1.24989 11.5859 1.58568 11.2501 1.99989 11.2501H21.9999C22.4141 11.2501 22.7499 11.5859 22.7499 12.0001C22.7497 12.4141 22.414 12.7501 21.9999 12.7501H20.7499V20.0001Z" fill="#FF756C"/>
</svg>
