<svg width="24" height="24" viewBox="0 0 24 24" fill="none" xmlns="http://www.w3.org/2000/svg">
<path d="M1.99988 12.0005H21.9999H1.99988ZM19.9999 12.0005V20.0005C19.9999 20.531 19.7892 21.0397 19.4141 21.4147C19.039 21.7898 18.5303 22.0005 17.9999 22.0005H5.99988C5.46944 22.0005 4.96074 21.7898 4.58566 21.4147C4.21059 21.0397 3.99988 20.531 3.99988 20.0005V12.0005M3.99988 8.00053L19.9999 4.00053L3.99988 8.00053ZM8.85987 6.78053L8.40987 4.97053C8.3454 4.71576 8.33177 4.45079 8.36976 4.19075C8.40775 3.93071 8.49661 3.6807 8.63128 3.45503C8.76594 3.22935 8.94376 3.03243 9.15457 2.87551C9.36538 2.7186 9.60505 2.60477 9.85987 2.54053L11.7999 2.06053C12.0553 1.99622 12.3209 1.98299 12.5815 2.02162C12.8421 2.06025 13.0924 2.14998 13.3182 2.28564C13.544 2.4213 13.7408 2.60023 13.8972 2.81214C14.0537 3.02406 14.1667 3.2648 14.2299 3.52053L14.6799 5.32053" fill="#C9C9C9"/>
<path d="M19.2499 12.7501H4.74988V20.0001C4.75 20.3315 4.88177 20.6496 5.11609 20.8839C5.35049 21.1182 5.66847 21.2501 5.99988 21.2501H17.9999C18.3313 21.2501 18.6493 21.1182 18.8837 20.8839C19.118 20.6496 19.2498 20.3315 19.2499 20.0001V12.7501ZM11.62 1.33213C11.9702 1.24439 12.3342 1.22551 12.6913 1.27842C13.0496 1.33153 13.3945 1.45517 13.705 1.6417C14.0152 1.82817 14.2858 2.07412 14.5009 2.36533C14.7156 2.65617 14.87 2.98711 14.9569 3.33799L15.2274 4.41904L19.8182 3.27158C20.2199 3.17138 20.6269 3.41591 20.7274 3.81748C20.8279 4.21933 20.5834 4.62718 20.1815 4.72764L4.18152 8.72764C3.77984 8.82786 3.37285 8.58336 3.27234 8.18174C3.17188 7.77989 3.41639 7.37204 3.81824 7.27158L7.95203 6.2374L7.6825 5.15244C7.59391 4.80223 7.57559 4.43861 7.62781 4.08115C7.68007 3.72371 7.80208 3.37965 7.98718 3.06943C8.17232 2.75925 8.41713 2.48825 8.70691 2.27256C8.9967 2.05692 9.32638 1.90089 9.67664 1.8126L9.67957 1.81162L11.62 1.33213ZM12.4716 2.76279C12.3088 2.73866 12.1429 2.74705 11.9833 2.78721L11.9803 2.78818L10.0399 3.26768C9.88187 3.30797 9.73327 3.37926 9.60242 3.47666C9.47083 3.57464 9.35937 3.69714 9.27527 3.83799C9.19117 3.97893 9.13596 4.13556 9.11218 4.29795C9.08846 4.46032 9.0964 4.62616 9.1366 4.78525L9.13757 4.78916L9.4071 5.87412L13.7723 4.78232L13.5018 3.70127V3.69932C13.4624 3.53958 13.3915 3.38932 13.2938 3.25693C13.196 3.12448 13.0726 3.01262 12.9315 2.92783C12.7905 2.84314 12.6343 2.78693 12.4716 2.76279ZM20.7499 20.0001C20.7498 20.7293 20.4598 21.4288 19.9442 21.9444C19.4285 22.46 18.7291 22.7501 17.9999 22.7501H5.99988C5.27064 22.7501 4.57124 22.46 4.05554 21.9444C3.53992 21.4288 3.25 20.7293 3.24988 20.0001V12.7501H1.99988C1.58581 12.7501 1.25012 12.4141 1.24988 12.0001C1.24988 11.5859 1.58566 11.2501 1.99988 11.2501H21.9999C22.4141 11.2501 22.7499 11.5859 22.7499 12.0001C22.7496 12.4141 22.4139 12.7501 21.9999 12.7501H20.7499V20.0001Z" fill="#C9C9C9"/>
</svg>
