<svg width="24" height="24" viewBox="0 0 24 24" fill="none" xmlns="http://www.w3.org/2000/svg">
<path d="M6.59863 2.95117V4.21875C6.59865 5.49991 7.51859 6.08295 8.80469 6.08301H14.8213C16.1074 6.08297 17.2715 5.49993 17.2715 4.21875V2.95117H18.0801C19.6242 2.95117 20.5078 3.80946 20.5078 5.34766V19.7188C20.5078 21.2569 19.5022 22.4375 17.958 22.4375H5.54883C4.00493 22.4373 3 21.2568 3 19.7188V5.34766C3 3.80955 4.12688 2.95127 5.6709 2.95117H6.59863ZM15.5303 11.1885C15.2374 10.8956 14.7626 10.8956 14.4697 11.1885L11 14.6582L9.53027 13.1885C9.23738 12.8956 8.76262 12.8956 8.46973 13.1885C8.17684 13.4814 8.17685 13.9561 8.46973 14.249L10.4697 16.249C10.7626 16.5419 11.2374 16.5419 11.5303 16.249L15.5303 12.249C15.8231 11.9561 15.8232 11.4814 15.5303 11.1885Z" fill="#C9C9C9"/>
<path d="M8.51575 4.71875H15.1141C15.4871 4.71875 15.7869 4.41667 15.7869 4.04861V1.67014C15.7869 1.29861 15.4836 1 15.1141 1H8.51575C8.14279 1 7.84302 1.30208 7.84302 1.67014V4.04861C7.84302 4.42014 8.14627 4.71875 8.51575 4.71875Z" fill="#C9C9C9"/>
</svg>
