<svg xmlns="http://www.w3.org/2000/svg" width="20" height="20" viewBox="0 0 20 20" fill="none">
<path d="M17.4134 7.53306C17.6712 7.20898 18.1429 7.15529 18.4671 7.41294C18.7912 7.67069 18.8449 8.14244 18.5873 8.46665C17.9461 9.27341 17.2129 9.99557 16.4066 10.6219L17.2542 11.6864C17.5121 12.0104 17.458 12.4821 17.1341 12.7401C16.8101 12.998 16.3384 12.9448 16.0804 12.6209L15.1624 11.4686C14.3769 11.9293 13.5393 12.2864 12.6673 12.5311L12.9554 13.8387C13.0444 14.2433 12.7877 14.6433 12.3832 14.7323C11.9787 14.8209 11.5785 14.5654 11.4896 14.161L11.1957 12.827C10.4008 12.9243 9.59864 12.9237 8.80405 12.826L8.51108 14.161C8.42218 14.5654 8.02195 14.821 7.61753 14.7323C7.21297 14.6434 6.95636 14.2433 7.04526 13.8387L7.33237 12.5291C6.4607 12.2846 5.62274 11.9292 4.83725 11.4686L3.92026 12.6209C3.66228 12.9448 3.19057 12.998 2.86655 12.7401C2.5427 12.4821 2.48859 12.0104 2.74643 11.6864L3.59311 10.6219C2.78701 9.99568 2.05442 9.27321 1.41343 8.46665C1.15578 8.14244 1.20947 7.67069 1.53354 7.41294C1.85775 7.15529 2.32951 7.20898 2.58725 7.53306C3.30397 8.43494 4.1471 9.21851 5.08725 9.85727C6.08723 10.5348 7.20306 11.0039 8.37241 11.242H8.37143C9.44773 11.4565 10.5527 11.4572 11.6283 11.243C12.7973 11.0049 13.9132 10.535 14.9134 9.85727C15.8536 9.21851 16.6967 8.43494 17.4134 7.53306Z" fill="#FF9500"/>
</svg>