<svg preserveAspectRatio="none" width="100%" height="100%" overflow="visible" style="display: block;" viewBox="0 0 17.5 21.5" fill="none" xmlns="http://www.w3.org/2000/svg">
<g id="Group">
<path id="Vector (Stroke)" d="M4.99998 4.75V0.75C4.99998 0.335787 5.33577 0 5.74998 0C6.1642 0 6.49998 0.335787 6.49998 0.75V4.75C6.49998 5.16421 6.1642 5.5 5.74998 5.5C5.33577 5.5 4.99998 5.16421 4.99998 4.75ZM11 4.75V0.75C11 0.335787 11.3358 0 11.75 0C12.1642 1.28852e-06 12.5 0.335787 12.5 0.75V4.75C12.5 5.16421 12.1642 5.5 11.75 5.5C11.3358 5.5 11 5.16421 11 4.75Z" fill="var(--fill-0, #FF958F)"/>
<path id="Exclude" d="M14.75 2.00001C16.2688 2.00001 17.5 3.23123 17.5 4.75001V18.75C17.5 20.2688 16.2688 21.5 14.75 21.5H2.75C1.23123 21.5 2.01008e-05 20.2688 0 18.75V4.75001C0 3.23122 1.23122 2.00001 2.75 2.00001H14.75ZM4.75 16C4.33579 16 4 16.3358 4 16.75C4.00004 17.1642 4.33581 17.5 4.75 17.5H9.75C10.1642 17.5 10.5 17.1642 10.5 16.75C10.5 16.3358 10.1642 16 9.75 16H4.75ZM4.75 12C4.33579 12 4 12.3358 4 12.75C4.00004 13.1642 4.33581 13.5 4.75 13.5H12.75C13.1642 13.5 13.5 13.1642 13.5 12.75C13.5 12.3358 13.1642 12 12.75 12H4.75ZM4.75 8.00001C4.33579 8.00001 4 8.33579 4 8.75001C4.00004 9.16418 4.33581 9.50001 4.75 9.50001H10.75C11.1642 9.5 11.5 9.16418 11.5 8.75001C11.5 8.33579 11.1642 8.00001 10.75 8.00001H4.75Z" fill="var(--fill-0, #FF958F)"/>
</g>
</svg>
