<svg width="40" height="40" viewBox="0 0 40 40" fill="none" xmlns="http://www.w3.org/2000/svg">
<path d="M35.4164 19.9997C35.4164 11.4853 28.5141 4.58301 19.9997 4.58301C11.4853 4.58301 4.58301 11.4853 4.58301 19.9997C4.58301 28.5141 11.4853 35.4164 19.9997 35.4164C28.5141 35.4164 35.4164 28.5141 35.4164 19.9997ZM37.9164 19.9997C37.9164 29.8948 29.8948 37.9164 19.9997 37.9164C10.1046 37.9164 2.08301 29.8948 2.08301 19.9997C2.08301 10.1046 10.1046 2.08301 19.9997 2.08301C29.8948 2.08301 37.9164 10.1046 37.9164 19.9997Z" fill="#A0A0A0"/>
<path d="M25.7825 12.4491C26.2706 11.961 27.0619 11.961 27.55 12.4491C28.0382 12.9373 28.0382 13.7285 27.55 14.2167L21.7672 19.9996L27.55 25.7825C28.0382 26.2706 28.0382 27.0619 27.55 27.55C27.0619 28.0382 26.2706 28.0382 25.7825 27.55L19.9996 21.7672L14.2167 27.55C13.7285 28.0382 12.9373 28.0382 12.4491 27.55C11.961 27.0619 11.961 26.2706 12.4491 25.7825L18.232 19.9996L12.4491 14.2167C11.961 13.7285 11.961 12.9373 12.4491 12.4491C12.9373 11.961 13.7285 11.961 14.2167 12.4491L19.9996 18.232L25.7825 12.4491Z" fill="#A0A0A0"/>
</svg>
