<svg width="24" height="24" viewBox="0 0 24 24" fill="none" xmlns="http://www.w3.org/2000/svg">
<path d="M11.2295 1.20905C11.7696 0.902088 12.3722 0.937604 12.902 1.28643L21.068 5.92515L17.4587 8.00033L8.36963 2.83647L11.2295 1.20905Z" fill="#C9C9C9"/>
<path d="M11.0891 22.9997L2.76093 18.2696C2.27067 17.9918 2.01532 17.5326 2 16.9758L2.00255 7.48145L11.0891 12.6643V23.0009V22.9997Z" fill="#C9C9C9"/>
<path d="M2.92822 5.93037L6.5401 3.86914L15.6151 9.033L12.002 11.1095L2.92822 5.93037Z" fill="#C9C9C9"/>
<path d="M21.1866 18.2974L12.9045 22.9983L12.9006 12.6642L21.9973 7.47754V17.034C21.9437 17.582 21.6922 18.0146 21.1866 18.2962V18.2974Z" fill="#C9C9C9"/>
</svg>
