<svg width="24" height="24" viewBox="0 0 24 24" fill="none" xmlns="http://www.w3.org/2000/svg">
<g clip-path="url(#clip0_3615_9516)">
<path d="M11.229 1.20905C11.7691 0.902088 12.3717 0.937604 12.9015 1.28643L21.0675 5.92515L17.4582 8.00033L8.36914 2.83647L11.229 1.20905Z" fill="#FF756C"/>
<path d="M11.0891 23.0006L2.76093 18.2706C2.27067 17.9928 2.01532 17.5336 2 16.9768L2.00255 7.48242L11.0891 12.6653V23.0019V23.0006Z" fill="#FF756C"/>
<path d="M2.92773 5.93037L6.53961 3.86914L15.6146 9.033L12.0015 11.1095L2.92773 5.93037Z" fill="#FF756C"/>
<path d="M21.1864 18.2984L12.9042 22.9993L12.9004 12.6652L21.9971 7.47852V17.035C21.9435 17.583 21.692 18.0155 21.1864 18.2971V18.2984Z" fill="#FF756C"/>
</g>
<defs>
<clipPath id="clip0_3615_9516">
<rect width="24" height="24" fill="white"/>
</clipPath>
</defs>
</svg>
