<svg width="24" height="24" viewBox="0 0 24 24" fill="none" xmlns="http://www.w3.org/2000/svg">
<path d="M12 1.25C17.937 1.25 22.75 6.06294 22.75 12C22.75 17.9371 17.937 22.75 12 22.75C6.06291 22.75 1.24997 17.9371 1.24997 12C1.24997 6.06294 6.06291 1.25 12 1.25ZM12 5.25C11.5858 5.25 11.25 5.58579 11.25 6V12C11.25 12.2841 11.4109 12.5439 11.665 12.6709L15.665 14.6709C16.0354 14.8558 16.4857 14.7053 16.6709 14.335C16.8558 13.9646 16.7053 13.5143 16.3349 13.3291L12.75 11.5361V6C12.75 5.58579 12.4142 5.25 12 5.25Z" fill="#C9C9C9"/>
</svg>
