<svg width="24" height="24" viewBox="0 0 24 24" fill="none" xmlns="http://www.w3.org/2000/svg">
<path d="M11.9999 1.25C17.937 1.25 22.7499 6.06294 22.7499 12C22.7499 17.9371 17.937 22.75 11.9999 22.75C6.06288 22.75 1.24994 17.9371 1.24994 12C1.24994 6.06294 6.06288 1.25 11.9999 1.25ZM11.9999 5.25C11.5857 5.25 11.2499 5.58579 11.2499 6V12C11.2499 12.2841 11.4109 12.5439 11.665 12.6709L15.665 14.6709C16.0354 14.8558 16.4857 14.7053 16.6708 14.335C16.8558 13.9646 16.7053 13.5143 16.3349 13.3291L12.7499 11.5361V6C12.7499 5.58579 12.4142 5.25 11.9999 5.25Z" fill="#FF756C"/>
</svg>
