<svg width="17" height="17" viewBox="0 0 17 17" fill="none" xmlns="http://www.w3.org/2000/svg">
<path d="M8.5 1C8.88423 1.00007 9.26215 1.09931 9.59414 1.28751C9.92531 1.47535 10.1995 1.74548 10.3889 2.06971L16.7091 12.8291C16.8996 13.1503 16.9999 13.5153 17 13.8861C17 14.2568 16.9002 14.6212 16.7099 14.9423C16.5195 15.2635 16.245 15.5306 15.9151 15.7162C15.5853 15.9018 15.2105 15.9996 14.8295 16H2.18673V15.9992C1.80575 16.0016 1.43008 15.9069 1.09877 15.7238C0.766029 15.5397 0.489234 15.273 0.296302 14.9513C0.10337 14.6295 0.00094883 14.2639 5.34272e-06 13.8914C-0.00084298 13.5187 0.0993454 13.1519 0.2909 12.8291H0.291672L6.61111 2.06971C6.80053 1.74538 7.07459 1.47537 7.40587 1.28751C7.73787 1.09934 8.11577 1.00002 8.5 1ZM8.50772 11.7722C8.18044 11.7722 7.91513 12.0303 7.91513 12.3487C7.91513 12.6671 8.18044 12.9252 8.50772 12.9252H8.51543C8.84271 12.9252 9.10803 12.6671 9.10803 12.3487C9.10803 12.0303 8.84271 11.7722 8.51543 11.7722H8.50772ZM8.50772 5.62266C8.18044 5.62267 7.91513 5.88078 7.91513 6.19918V10.0426C7.91513 10.361 8.18047 10.6191 8.50772 10.6192C8.835 10.6192 9.10032 10.361 9.10031 10.0426V6.19918C9.10031 5.88078 8.83499 5.62266 8.50772 5.62266Z" fill="#FF9500"/>
</svg>
