<svg width="40" height="40" viewBox="0 0 40 40" fill="none" xmlns="http://www.w3.org/2000/svg">
<path d="M35.4164 31.6683C35.4162 31.3033 35.3205 30.9443 35.138 30.6283L35.1348 30.6234L21.8128 7.30794L21.8096 7.30469C21.6282 6.98476 21.3655 6.71845 21.0479 6.5332C20.7299 6.3479 20.3677 6.25 19.9997 6.25C19.6316 6.25001 19.2695 6.3479 18.9515 6.5332C18.6339 6.71846 18.3711 6.98477 18.1898 7.30469L18.1882 7.30794H18.1865L4.86459 30.6234L4.86134 30.6283C4.67802 30.9457 4.58233 31.3066 4.58302 31.6732C4.58383 32.04 4.68138 32.4012 4.86622 32.7181C5.05105 33.0349 5.31723 33.297 5.63608 33.4782C5.95489 33.6593 6.31598 33.7533 6.68263 33.75H33.3379C33.7029 33.7496 34.062 33.6528 34.3779 33.4701C34.6937 33.2873 34.9558 33.0244 35.138 32.7083C35.3203 32.3921 35.4165 32.0333 35.4164 31.6683ZM20.0322 27.0882C20.7225 27.0882 21.2822 27.6479 21.2822 28.3382C21.2822 29.0286 20.7226 29.5882 20.0322 29.5882H20.016C19.3258 29.588 18.766 29.0284 18.766 28.3382C18.766 27.6481 19.3258 27.0884 20.016 27.0882H20.0322ZM18.766 15.0146C18.7664 14.3248 19.326 13.7649 20.016 13.7646C20.7061 13.7646 21.2656 14.3246 21.266 15.0146V23.3415C21.266 24.0318 20.7063 24.5915 20.016 24.5915C19.3261 24.5912 18.7664 24.0329 18.766 23.3431V15.0146ZM37.9164 31.6683C37.9165 32.4716 37.7055 33.2608 37.3044 33.9567C36.9029 34.6529 36.3252 35.2324 35.6296 35.6348C34.9341 36.037 34.1446 36.249 33.3412 36.25H6.69402V36.2484C5.89028 36.2537 5.09962 36.0483 4.40073 35.651C3.69867 35.252 3.11331 34.6754 2.70639 33.9779C2.29952 33.2804 2.08486 32.4872 2.08302 31.6797C2.08123 30.8721 2.2928 30.0776 2.69663 29.3783L16.0169 6.06771C16.4163 5.36482 16.9949 4.78047 17.6934 4.37337C18.3935 3.96542 19.1894 3.75001 19.9997 3.75C20.81 3.75 21.6059 3.96541 22.306 4.37337C23.0045 4.78047 23.5831 5.36482 23.9824 6.06771L37.3027 29.3783L37.4444 29.6436C37.7542 30.272 37.9162 30.9649 37.9164 31.6683Z" fill="#FF756C"/>
</svg>
