<svg width="19" height="17" viewBox="0 0 19 17" fill="none" xmlns="http://www.w3.org/2000/svg">
<path d="M9.35045 16.302C8.04361 16.302 6.82171 16.148 5.68476 15.84C4.56088 15.532 3.56768 15.048 2.70516 14.388C1.85571 13.728 1.18923 12.8847 0.705694 11.858C0.235231 10.8313 0 9.592 0 8.14C0 6.67333 0.235231 5.42667 0.705694 4.4C1.17616 3.35867 1.82958 2.51533 2.66596 1.87C3.50233 1.22467 4.48246 0.755334 5.60635 0.462001C6.7433 0.154 7.97826 0 9.31124 0C11.2323 0 12.8724 0.322667 14.2315 0.968C15.5906 1.59867 16.6296 2.51533 17.3483 3.718C18.0671 4.906 18.4265 6.34333 18.4265 8.03C18.4265 9.46733 18.1912 10.7067 17.7208 11.748C17.2634 12.7893 16.623 13.6473 15.7997 14.322C14.9764 14.9967 14.0159 15.4953 12.9181 15.818C11.8204 16.1407 10.6312 16.302 9.35045 16.302ZM6.23363 8.228C6.23363 9.13733 6.31204 9.944 6.46886 10.648C6.63875 11.3373 6.93933 11.88 7.37058 12.276C7.80184 12.6573 8.42259 12.848 9.23283 12.848C9.87318 12.848 10.3829 12.7087 10.7618 12.43C11.1539 12.1513 11.4479 11.7847 11.644 11.33C11.853 10.8753 11.9903 10.3767 12.0556 9.834C12.121 9.27667 12.1536 8.734 12.1536 8.206C12.1536 7.64867 12.1144 7.06933 12.036 6.468C11.9707 5.86667 11.8334 5.30933 11.6244 4.796C11.4283 4.28267 11.1343 3.872 10.7422 3.564C10.3632 3.24133 9.86012 3.08 9.23283 3.08C8.44873 3.08 7.83451 3.31467 7.39019 3.784C6.95893 4.25333 6.65836 4.884 6.48847 5.676C6.31858 6.45333 6.23363 7.304 6.23363 8.228Z" fill="url(#paint0_linear_1969_23039)"/>
<path d="M9.35045 16.302C8.04361 16.302 6.82171 16.148 5.68476 15.84C4.56088 15.532 3.56768 15.048 2.70516 14.388C1.85571 13.728 1.18923 12.8847 0.705694 11.858C0.235231 10.8313 0 9.592 0 8.14C0 6.67333 0.235231 5.42667 0.705694 4.4C1.17616 3.35867 1.82958 2.51533 2.66596 1.87C3.50233 1.22467 4.48246 0.755334 5.60635 0.462001C6.7433 0.154 7.97826 0 9.31124 0C11.2323 0 12.8724 0.322667 14.2315 0.968C15.5906 1.59867 16.6296 2.51533 17.3483 3.718C18.0671 4.906 18.4265 6.34333 18.4265 8.03C18.4265 9.46733 18.1912 10.7067 17.7208 11.748C17.2634 12.7893 16.623 13.6473 15.7997 14.322C14.9764 14.9967 14.0159 15.4953 12.9181 15.818C11.8204 16.1407 10.6312 16.302 9.35045 16.302ZM6.23363 8.228C6.23363 9.13733 6.31204 9.944 6.46886 10.648C6.63875 11.3373 6.93933 11.88 7.37058 12.276C7.80184 12.6573 8.42259 12.848 9.23283 12.848C9.87318 12.848 10.3829 12.7087 10.7618 12.43C11.1539 12.1513 11.4479 11.7847 11.644 11.33C11.853 10.8753 11.9903 10.3767 12.0556 9.834C12.121 9.27667 12.1536 8.734 12.1536 8.206C12.1536 7.64867 12.1144 7.06933 12.036 6.468C11.9707 5.86667 11.8334 5.30933 11.6244 4.796C11.4283 4.28267 11.1343 3.872 10.7422 3.564C10.3632 3.24133 9.86012 3.08 9.23283 3.08C8.44873 3.08 7.83451 3.31467 7.39019 3.784C6.95893 4.25333 6.65836 4.884 6.48847 5.676C6.31858 6.45333 6.23363 7.304 6.23363 8.228Z" fill="white"/>
<defs>
<linearGradient id="paint0_linear_1969_23039" x1="-11.9272" y1="-0.703998" x2="153.933" y2="17.4681" gradientUnits="userSpaceOnUse">
<stop stop-color="#FFBAAF"/>
<stop offset="0.230769" stop-color="white"/>
<stop offset="0.798077" stop-color="white"/>
<stop offset="1" stop-color="#DA3328"/>
</linearGradient>
</defs>
</svg>
