<svg width="15" height="17" viewBox="0 0 15 17" fill="none" xmlns="http://www.w3.org/2000/svg">
<path d="M5.52794 16.39C4.37792 16.39 3.33898 16.302 2.41112 16.126C1.49633 15.9647 0.692626 15.7373 0 15.444V11.242C0.705694 11.7847 1.5094 12.1733 2.41112 12.408C3.31284 12.628 4.31911 12.738 5.42993 12.738C5.78277 12.738 6.13562 12.694 6.48847 12.606C6.84131 12.518 7.13535 12.364 7.37058 12.144C7.60581 11.9093 7.72343 11.5867 7.72343 11.176C7.72343 10.604 7.52087 10.2227 7.11575 10.032C6.71063 9.84133 6.2467 9.746 5.72396 9.746H2.82278V6.776H5.58675C5.93959 6.776 6.28591 6.72467 6.62568 6.622C6.96546 6.51933 7.2399 6.35067 7.449 6.116C7.67116 5.88133 7.78224 5.566 7.78224 5.17C7.78224 4.80333 7.67116 4.532 7.449 4.356C7.2399 4.16533 6.96546 4.03333 6.62568 3.96C6.29897 3.88667 5.95266 3.85 5.58675 3.85C5.0248 3.85 4.48246 3.87933 3.95973 3.938C3.45006 3.982 2.92079 4.09933 2.37192 4.29C1.82305 4.48067 1.2219 4.78867 0.568476 5.214V1.166C1.57474 0.696666 2.61368 0.388666 3.68529 0.242C4.7569 0.0806666 5.7501 0 6.66489 0C7.40979 0 8.16776 0.0586669 8.93879 0.176C9.70983 0.278667 10.4221 0.469334 11.0755 0.748C11.742 1.02667 12.2712 1.43 12.6633 1.958C13.0684 2.486 13.271 3.168 13.271 4.004C13.271 4.81067 13.1011 5.46333 12.7613 5.962C12.4346 6.446 11.9903 6.82733 11.4283 7.106C10.8664 7.38467 10.2326 7.61933 9.52688 7.81L9.48766 7.942C10.2979 7.986 11.0428 8.12533 11.7224 8.36C12.415 8.58 12.9704 8.93933 13.3886 9.438C13.8198 9.93667 14.0355 10.6333 14.0355 11.528C14.0355 12.3053 13.8525 12.9727 13.4866 13.53C13.1338 14.0873 12.6502 14.5493 12.036 14.916C11.4349 15.2827 10.7618 15.576 10.0169 15.796C9.27204 16.016 8.50754 16.17 7.72343 16.258C6.9524 16.346 6.22057 16.39 5.52794 16.39Z" fill="url(#paint0_linear_1969_23035)"/>
<path d="M5.52794 16.39C4.37792 16.39 3.33898 16.302 2.41112 16.126C1.49633 15.9647 0.692626 15.7373 0 15.444V11.242C0.705694 11.7847 1.5094 12.1733 2.41112 12.408C3.31284 12.628 4.31911 12.738 5.42993 12.738C5.78277 12.738 6.13562 12.694 6.48847 12.606C6.84131 12.518 7.13535 12.364 7.37058 12.144C7.60581 11.9093 7.72343 11.5867 7.72343 11.176C7.72343 10.604 7.52087 10.2227 7.11575 10.032C6.71063 9.84133 6.2467 9.746 5.72396 9.746H2.82278V6.776H5.58675C5.93959 6.776 6.28591 6.72467 6.62568 6.622C6.96546 6.51933 7.2399 6.35067 7.449 6.116C7.67116 5.88133 7.78224 5.566 7.78224 5.17C7.78224 4.80333 7.67116 4.532 7.449 4.356C7.2399 4.16533 6.96546 4.03333 6.62568 3.96C6.29897 3.88667 5.95266 3.85 5.58675 3.85C5.0248 3.85 4.48246 3.87933 3.95973 3.938C3.45006 3.982 2.92079 4.09933 2.37192 4.29C1.82305 4.48067 1.2219 4.78867 0.568476 5.214V1.166C1.57474 0.696666 2.61368 0.388666 3.68529 0.242C4.7569 0.0806666 5.7501 0 6.66489 0C7.40979 0 8.16776 0.0586669 8.93879 0.176C9.70983 0.278667 10.4221 0.469334 11.0755 0.748C11.742 1.02667 12.2712 1.43 12.6633 1.958C13.0684 2.486 13.271 3.168 13.271 4.004C13.271 4.81067 13.1011 5.46333 12.7613 5.962C12.4346 6.446 11.9903 6.82733 11.4283 7.106C10.8664 7.38467 10.2326 7.61933 9.52688 7.81L9.48766 7.942C10.2979 7.986 11.0428 8.12533 11.7224 8.36C12.415 8.58 12.9704 8.93933 13.3886 9.438C13.8198 9.93667 14.0355 10.6333 14.0355 11.528C14.0355 12.3053 13.8525 12.9727 13.4866 13.53C13.1338 14.0873 12.6502 14.5493 12.036 14.916C11.4349 15.2827 10.7618 15.576 10.0169 15.796C9.27204 16.016 8.50754 16.17 7.72343 16.258C6.9524 16.346 6.22057 16.39 5.52794 16.39Z" fill="white"/>
<defs>
<linearGradient id="paint0_linear_1969_23035" x1="-61.1803" y1="-0.638001" x2="104.68" y2="17.5341" gradientUnits="userSpaceOnUse">
<stop stop-color="#FFBAAF"/>
<stop offset="0.230769" stop-color="white"/>
<stop offset="0.798077" stop-color="white"/>
<stop offset="1" stop-color="#DA3328"/>
</linearGradient>
</defs>
</svg>
