<svg width="14" height="16" viewBox="0 0 14 16" fill="none" xmlns="http://www.w3.org/2000/svg">
<path d="M4.92026 15.95C4.00547 15.95 3.12989 15.862 2.29351 15.686C1.4702 15.51 0.705694 15.2313 0 14.85V11C0.849447 11.4547 1.71196 11.792 2.58755 12.012C3.4762 12.232 4.35831 12.342 5.2339 12.342C5.59981 12.342 5.97226 12.3127 6.35125 12.254C6.73023 12.1953 7.05041 12.0707 7.31178 11.88C7.57314 11.6747 7.70383 11.3667 7.70383 10.956C7.70383 10.56 7.59275 10.2667 7.37058 10.076C7.14842 9.87067 6.86745 9.73867 6.52767 9.68C6.18789 9.60667 5.84158 9.57 5.48873 9.57H0.137219V0H12.6437V5.302C12.4607 4.95 12.1994 4.67867 11.8596 4.488C11.5329 4.28267 11.1866 4.18 10.8206 4.18H4.39099V5.852H7.4686C8.33111 5.852 9.14789 5.918 9.91892 6.05C10.69 6.16733 11.3695 6.39467 11.9576 6.732C12.5587 7.05467 13.0227 7.51667 13.3494 8.118C13.6892 8.71933 13.859 9.48933 13.859 10.428C13.859 11.3373 13.6826 12.1147 13.3298 12.76C12.9769 13.3907 12.4999 13.9187 11.8988 14.344C11.2976 14.7547 10.6116 15.0773 9.84052 15.312C9.06948 15.5467 8.25924 15.708 7.40979 15.796C6.57341 15.8987 5.74357 15.95 4.92026 15.95Z" fill="url(#paint0_linear_1969_23038)"/>
<path d="M4.92026 15.95C4.00547 15.95 3.12989 15.862 2.29351 15.686C1.4702 15.51 0.705694 15.2313 0 14.85V11C0.849447 11.4547 1.71196 11.792 2.58755 12.012C3.4762 12.232 4.35831 12.342 5.2339 12.342C5.59981 12.342 5.97226 12.3127 6.35125 12.254C6.73023 12.1953 7.05041 12.0707 7.31178 11.88C7.57314 11.6747 7.70383 11.3667 7.70383 10.956C7.70383 10.56 7.59275 10.2667 7.37058 10.076C7.14842 9.87067 6.86745 9.73867 6.52767 9.68C6.18789 9.60667 5.84158 9.57 5.48873 9.57H0.137219V0H12.6437V5.302C12.4607 4.95 12.1994 4.67867 11.8596 4.488C11.5329 4.28267 11.1866 4.18 10.8206 4.18H4.39099V5.852H7.4686C8.33111 5.852 9.14789 5.918 9.91892 6.05C10.69 6.16733 11.3695 6.39467 11.9576 6.732C12.5587 7.05467 13.0227 7.51667 13.3494 8.118C13.6892 8.71933 13.859 9.48933 13.859 10.428C13.859 11.3373 13.6826 12.1147 13.3298 12.76C12.9769 13.3907 12.4999 13.9187 11.8988 14.344C11.2976 14.7547 10.6116 15.0773 9.84052 15.312C9.06948 15.5467 8.25924 15.708 7.40979 15.796C6.57341 15.8987 5.74357 15.95 4.92026 15.95Z" fill="white"/>
<defs>
<linearGradient id="paint0_linear_1969_23038" x1="-31.7925" y1="-1.056" x2="134.068" y2="17.1161" gradientUnits="userSpaceOnUse">
<stop stop-color="#FFBAAF"/>
<stop offset="0.230769" stop-color="white"/>
<stop offset="0.798077" stop-color="white"/>
<stop offset="1" stop-color="#DA3328"/>
</linearGradient>
</defs>
</svg>
