<svg width="5" height="4" viewBox="0 0 5 4" fill="none" xmlns="http://www.w3.org/2000/svg">
<path d="M2.45033 3.894C1.65315 3.894 1.04548 3.72533 0.627286 3.388C0.209097 3.036 0 2.552 0 1.936C0 1.33467 0.209097 0.865333 0.627286 0.528C1.04548 0.176 1.65315 0 2.45033 0C3.22136 0 3.81598 0.176 4.23417 0.528C4.65236 0.865333 4.86145 1.33467 4.86145 1.936C4.86145 2.552 4.65236 3.036 4.23417 3.388C3.81598 3.72533 3.22136 3.894 2.45033 3.894Z" fill="url(#paint0_linear_1969_23037)"/>
<path d="M2.45033 3.894C1.65315 3.894 1.04548 3.72533 0.627286 3.388C0.209097 3.036 0 2.552 0 1.936C0 1.33467 0.209097 0.865333 0.627286 0.528C1.04548 0.176 1.65315 0 2.45033 0C3.22136 0 3.81598 0.176 4.23417 0.528C4.65236 0.865333 4.86145 1.33467 4.86145 1.936C4.86145 2.552 4.65236 3.036 4.23417 3.388C3.81598 3.72533 3.22136 3.894 2.45033 3.894Z" fill="white"/>
<defs>
<linearGradient id="paint0_linear_1969_23037" x1="-46.4321" y1="-13.068" x2="119.428" y2="5.10413" gradientUnits="userSpaceOnUse">
<stop stop-color="#FFBAAF"/>
<stop offset="0.230769" stop-color="white"/>
<stop offset="0.798077" stop-color="white"/>
<stop offset="1" stop-color="#DA3328"/>
</linearGradient>
</defs>
</svg>
